<?xml version="1.0" standalone="no"?>
  <!DOCTYPE svg PUBLIC "-//W3C//DTD SVG 1.1//EN" "http://www.w3.org/Graphics/SVG/1.1/DTD/svg11.dtd" >
  <svg>
  <metadata>
  Created by font-carrier
  </metadata>
  <defs>
  <font id="Likely Kitty - Personal Use" horiz-adv-x="4633" vert-adv-y="4633" >
    <font-face
      
      font-family="Likely Kitty - Personal Use"
      
      font-weight="400"
      
      font-stretch="normal"
      
      units-per-em="1000"
      
      ascent="719"
      
      descent="-263"
      
    />
      <missing-glyph />

      

      
      <glyph glyph-name="uni42" unicode="&#x42;" d="M1084 244C1287 323 1351 564 1264 580C1202 591 1116 512 1054 443C1083 487 1105 516 1108 519C1108 520 1108 520 1108 520C1108 525 1102 584 1050 580C1048 580 1045 579 1043 578L1043 578C975 549 862 523 678 516C624 514 434 510 432 510C348 507 189 500 75 431C21 399 5 368 8 342C9 341 9 340 10 340C50 343 82 317 105 257C105 257 106 257 106 257C101 383 345 414 449 427C531 436 614 442 690 452C690 452 865 467 992 520C930 421 852 222 829 72C695 39 727-56 727-56C752-140 903-129 903-129C1082-123 1205-4 1216 111C1223 192 1156 229 1084 244ZM1252 544C1315 528 1087 283 949 256C952 261 954 267 957 272L957 272C957 272 1179 563 1252 544ZM763-27C765 6 799 20 823 26C823 24 823 22 823 20C823 20 813-46 837-90C796-82 760-62 763-27ZM1134 96C1129-54 957-90 906-94C897-95 887-95 878-95C869-71 863-32 875 31C923 26 944-30 950-49C950-50 952-50 952-49C953-3 989 9 1000 11C1001 11 1002 13 1002 14C980 66 917 75 884 76C895 116 910 163 933 218C997 214 1137 192 1134 96Z"  horiz-adv-x="1263" vert-adv-y="1000"  />

      
      <glyph glyph-name="uni43" unicode="&#x43;" d="M1311 565C1292 589 1246 585 1246 585C1203 584 1163 570 1127 548C1058 508 1001 441 958 381C890 367 800 358 679 358C625 358 435 361 433 362C349 362 190 361 73 297C18 266 1 236 3 209C3 209 4 209 4 209C45 210 76 182 97 119C97 119 98 119 98 119C94 248 342 269 447 278C529 284 612 287 688 293C688 293 809 299 923 328C893 280 877 244 877 244C877 244 700-131 1004-129C1004-129 1210-137 1276 106C1276 106 1294 176 1270 225C1256 255 1225 278 1166 271C1165 271 1165 270 1166 270C1181 266 1192 257 1199 245C1231 196 1198 97 1198 97C1127-112 998-98 998-98C824-89 963 214 963 214C963 214 985 276 1034 353C1205 393 1291 453 1313 491C1339 536 1311 565 1311 565ZM1066 400C1093 437 1126 475 1165 510C1205 545 1264 569 1279 538C1279 538 1309 470 1066 400Z"  horiz-adv-x="1331" vert-adv-y="1000"  />

      
      <glyph glyph-name="uni44" unicode="&#x44;" d="M1266 580C1204 591 1118 512 1056 443C1085 487 1107 516 1110 519C1110 520 1110 520 1110 520C1110 525 1104 584 1053 580C1050 580 1048 579 1045 578L1045 578C977 549 864 523 680 516C626 514 436 510 434 510C351 507 192 500 77 431C24 399 7 368 11 342C11 341 11 340 12 340C52 343 85 316 108 256C108 255 108 255 108 256C101 383 347 414 451 427C533 436 616 442 692 452C692 452 868 467 994 520C932 421 854 222 831 72C697 39 729-56 729-56C754-140 906-129 906-129C906-129 1198-129 1310 198C1438 575 1266 580 1266 580ZM765-27C767 6 802 20 826 26C825 24 825 22 825 20C825 20 815-47 840-91C798-83 762-62 765-27ZM1216 204C1216 204 1114-69 908-94C899-95 890-95 880-95C871-72 865-33 877 31C925 26 946-30 952-49C952-50 954-50 954-49C956-3 992 9 1002 11C1003 11 1004 13 1004 14C982 66 919 75 887 76C898 120 916 173 943 237C948 249 953 260 959 272L959 272C959 272 1182 563 1254 544C1254 544 1346 524 1216 204Z"  horiz-adv-x="1358" vert-adv-y="1000"  />

      
      <glyph glyph-name="uni45" unicode="&#x45;" d="M1384 580C1369 572 1329 573 1295 573C1272 573 1251 572 1251 572C1165 571 1111 537 1079 505C1089 559 1067 575 1053 579C1050 580 1047 580 1045 578C977 550 863 526 680 522C626 520 435 519 433 519C350 517 191 512 75 444C22 413 5 383 8 357C8 356 9 355 9 355C49 357 81 330 103 271C103 270 104 270 104 271C101 396 346 424 449 435C532 444 615 449 691 457C691 457 907 473 1033 539C1019 493 992 433 992 433C897 215 872 77 870-6C871-34 880-121 982-129C1049-133 1139-114 1227-19C1227-19 1275 35 1277 89C1278 124 1261 158 1202 180C1216 169 1222 155 1223 140C1229 82 1154 10 1154 10C1089-52 1033-77 989-85C944-29 979 142 1017 286C1038 314 1143 270 1202 289C1229 295 1260 321 1246 364C1245 367 1242 367 1240 366C1208 335 1087 342 1066 344C1051 345 1040 343 1032 338C1036 355 1041 371 1045 386L1045 384C1108 539 1260 482 1322 497C1378 510 1387 560 1388 578C1388 580 1386 581 1384 580Z"  horiz-adv-x="1329" vert-adv-y="1000"  />

      
      <glyph glyph-name="uni46" unicode="&#x46;" d="M1383 580C1368 572 1328 573 1294 573C1270 573 1250 572 1250 572C1164 571 1110 537 1078 505C1087 559 1066 575 1051 579C1049 580 1046 580 1043 578C975 550 862 526 678 522C624 520 434 519 432 519C348 517 189 512 74 444C21 414 4 384 6 358C6 356 8 355 9 355C48 356 79 330 101 272C101 271 103 271 103 273C102 397 345 424 448 435C530 444 613 449 689 457C689 457 906 473 1031 539C1017 493 991 433 991 433C815 33 878-99 886-113C887-113 888-114 888-115C956-150 1011-113 1022-105C1023-104 1023-103 1022-103C930-94 970 115 1016 286C1036 314 1141 270 1200 289C1228 295 1258 321 1245 364C1244 367 1240 367 1238 366C1206 335 1086 342 1064 344C1049 345 1038 343 1030 338C1035 355 1039 371 1044 386L1044 384C1106 539 1259 482 1320 497C1377 510 1385 560 1387 578C1387 580 1384 581 1383 580Z"  horiz-adv-x="1244" vert-adv-y="1000"  />

      
      <glyph glyph-name="uni47" unicode="&#x47;" d="M1324 158C1323 165 1318 178 1309 192C1309 192 1309 192 1309 192L1309 192C1288 225 1242 266 1147 255C1147 255 1128 253 1106 251C1074 247 1035 241 1021 248C1020 249 1019 248 1020 247C1022 234 1034 184 1091 178C1125 174 1185 198 1244 191C1122-106 998-98 998-98C823-89 962 214 962 214C962 214 985 276 1033 353C1205 393 1291 453 1313 491C1338 536 1310 565 1310 565C1291 589 1246 585 1246 585C1203 584 1163 570 1127 548C1058 508 1000 441 958 381C890 367 799 358 679 358C625 358 434 361 433 362C349 362 190 361 73 297C17 266 0 236 3 209C44 210 77 182 97 118C92 247 341 269 447 278C529 284 612 287 688 293C688 293 809 299 923 328C893 280 877 244 877 244C877 244 699-131 1004-129C1004-129 1077-133 1149-58C1144-85 1141-112 1143-139C1146-185 1160-206 1178-213C1179-213 1180-213 1180-212C1192-186 1220-174 1267-179C1268-179 1268-179 1267-178C1183-139 1246 32 1274 104C1283 127 1292 150 1301 173C1308 168 1315 163 1322 157C1323 156 1325 157 1324 158ZM1165 510C1205 545 1263 569 1279 538C1279 538 1309 470 1066 400C1093 437 1126 475 1165 510Z"  horiz-adv-x="1348" vert-adv-y="1000"  />

      
      <glyph glyph-name="uni48" unicode="&#x48;" d="M1059 580C991 552 871 526 688 522C634 520 444 519 442 519C359 517 200 512 84 444C30 413 14 383 16 356C17 355 17 355 18 355C58 357 90 330 112 270C112 269 113 269 113 270C108 396 354 424 458 435C541 444 623 449 699 457C699 457 887 471 1014 526C1013 470 999 342 904 188C685 221 449 247 394 88C336-79 520-122 520-122C520-122 785-197 957 135C967 133 977 131 987 129C1031 121 1073 115 1110 111C1080-43 1109-104 1114-113C1115-113 1115-114 1116-115C1184-150 1239-113 1250-105C1251-104 1251-103 1250-103C1188-97 1186-2 1204 110C1259 117 1296 142 1304 196C1305 198 1302 200 1301 198C1285 174 1255 162 1213 159C1241 296 1291 445 1302 491C1323 573 1279 581 1270 581C1269 581 1268 581 1268 580C1268 546 1218 433 1218 433C1170 322 1140 232 1121 160C1078 163 1029 170 977 177C1094 429 1063 568 1060 579C1060 580 1059 580 1059 580ZM544-26C544-26 427-16 440 69C452 144 629 182 878 148C738-47 544-26 544-26Z"  horiz-adv-x="1323" vert-adv-y="1000"  />

      
      <glyph glyph-name="uni49" unicode="&#x49;" d="M1056 542C1056 543 1056 544 1056 546C1053 561 1042 571 1027 580C1026 580 1025 580 1024 580C951 558 835 538 683 534C629 532 438 531 437 531C353 529 194 524 79 457C24 425 8 395 11 368C11 368 12 367 12 367C52 369 84 342 107 282C107 281 107 281 107 282C103 408 349 437 453 447C535 456 618 461 694 469C694 469 881 484 1009 538C1009 538 837-96 579-16C578-16 577-17 577-18C565-83 606-122 644-129C645-129 645-129 646-129C914-132 1027 381 1056 542Z"  horiz-adv-x="1023" vert-adv-y="1000"  />

      
      <glyph glyph-name="unic6" unicode="&#xc6;" d="M1011-128C1015-128 1019-129 1024-129C1091-133 1181-114 1269-19C1269-19 1317 35 1319 89C1320 124 1303 158 1244 180C1258 169 1264 155 1265 140C1271 82 1196 10 1196 10C1131-52 1075-77 1031-85C986-29 1021 142 1059 286C1080 314 1185 270 1244 289C1271 295 1302 321 1288 364C1287 367 1284 367 1282 366C1249 335 1129 342 1108 344C1092 345 1081 343 1073 338C1078 355 1083 371 1087 386L1087 384C1150 539 1302 482 1363 497C1420 510 1429 560 1430 578C1430 580 1428 581 1426 580C1411 572 1371 573 1337 573C1314 573 1293 572 1293 572C1207 571 1153 537 1121 505C1131 559 1109 575 1095 579C1094 580 1092 580 1091 580C1089 580 1086 579 1085 578C1016 550 903 526 719 522C665 520 475 519 473 519C390 517 231 512 115 444C61 413 45 383 47 356C48 355 48 355 49 355C89 357 121 330 143 270C143 269 144 269 144 270C139 396 385 424 489 435C572 444 654 449 730 457C730 457 925 472 1052 529C951 375 864 261 787 178C551 213 268 264 207 88C150-79 335-118 335-118C526-165 698-34 830 124C863 118 895 114 924 111C924 111 866-122 1011-128ZM358-26C358-26 241-16 254 69C266 149 470 188 749 139C600-10 485-38 358-26ZM865 167C931 254 986 344 1024 415C980 313 952 228 935 160C913 161 889 164 865 167Z"  horiz-adv-x="1482" vert-adv-y="1000"  />

      
      <glyph glyph-name="uni0152" unicode="&#x0152;" d="M1734 580C1719 572 1679 573 1645 573C1621 573 1601 572 1601 572C1515 571 1461 537 1429 505C1438 559 1417 575 1402 579C1400 580 1397 580 1394 578L1382 539C1368 493 1342 433 1342 433C1339 427 1337 422 1335 417C1325 437 1313 453 1300 465C1310 474 1317 483 1322 491C1347 536 1319 565 1319 565C1300 589 1255 585 1255 585C1212 584 1172 570 1136 548C1067 508 1009 441 966 381C899 367 808 358 688 358C634 358 443 361 441 362C358 362 199 361 82 297C26 266 9 236 12 209C12 209 12 209 13 209C53 210 85 182 106 119C106 119 106 119 106 119C103 248 351 269 455 278C538 284 621 287 697 293C697 293 818 299 932 328C902 280 886 244 886 244C886 244 708-131 1013-129C1013-129 1124-136 1222-28C1227-65 1249-123 1332-129C1398-133 1489-114 1577-19C1577-19 1625 35 1627 89C1628 124 1610 158 1552 180C1565 169 1572 155 1573 140C1578 82 1503 10 1503 10C1439-52 1383-77 1339-85C1294-29 1328 142 1367 286C1387 314 1492 270 1551 289C1579 295 1609 321 1596 364C1595 367 1591 367 1589 366C1557 335 1437 342 1415 344C1400 345 1389 343 1381 338C1386 355 1390 371 1395 386L1395 384C1457 539 1610 482 1671 497C1728 510 1736 560 1738 578C1738 580 1735 581 1734 580ZM1174 510C1214 545 1272 569 1288 538C1288 538 1297 518 1266 488C1250 496 1235 500 1226 502C1223 502 1222 499 1224 498C1230 493 1239 486 1248 473C1217 451 1164 426 1075 400C1102 437 1135 475 1174 510ZM1006-93C831-80 971 214 971 214C971 214 994 276 1042 353C1147 377 1220 409 1266 439C1285 389 1291 305 1241 165C1160-66 1050-96 1006-93Z"  horiz-adv-x="1804" vert-adv-y="1000"  />

      
      <glyph glyph-name="unidf" unicode="&#xdf;" d="M235 119C321 94 423 14 415-38C409-82 303-89 215-81C217-104 231-120 262-126C346-134 440-126 463-60C500 45 373 139 267 181C398 228 523 324 539 428C565 590 413 578 413 578C362 575 320 559 285 536C220 493 182 417 182 417C122 295 72 146 63 20C63 20 43-121 135-128C137-128 138-125 137-123C116-106 67-32 181 237C209 303 246 367 277 417C277 417 313 475 359 510C396 539 440 553 471 517C471 517 538 399 207 217C200 214 195 207 194 199C186 159 207 129 235 119Z"  horiz-adv-x="610" vert-adv-y="1000"  />

      
      <glyph glyph-name="uni4a" unicode="&#x4a;" d="M601-67C601-67 546-32 593 108C629 215 724 245 750 251C752 252 752 254 750 255C598 306 474 170 488 41C500-76 618-120 643-128C646-129 649-130 652-129C918-127 1030 382 1058 542C1058 543 1058 544 1058 545C1056 561 1045 571 1029 580C1029 580 1028 580 1027 580C954 558 837 538 685 534C631 532 441 531 439 531C355 529 196 524 81 457C27 425 10 395 13 368C13 368 14 367 15 367C55 369 87 342 109 282C109 281 110 281 110 282C105 408 351 437 455 447C537 456 620 461 696 469C696 469 884 484 1011 538C1011 538 828-59 601-67Z"  horiz-adv-x="1013" vert-adv-y="1000"  />

      
      <glyph glyph-name="uni4b" unicode="&#x4b;" d="M1308-62C1293-57 1275-56 1245-52C1088-29 1057 205 1057 205C1032 378 1208 406 1258 451C1308 496 1282 550 1276 562C1275 563 1274 563 1273 562C1267 547 1226 525 1192 506C1169 494 1150 482 1150 482C1090 448 1053 405 1031 364C1047 436 1057 501 1064 542C1064 543 1064 544 1064 545C1062 561 1051 571 1035 580C1034 580 1033 580 1033 580C959 558 843 538 691 534C637 532 446 531 445 531C361 529 202 524 87 457C33 425 16 395 19 368C19 368 20 367 20 367C61 369 92 342 115 282C115 281 116 281 116 282C111 408 357 437 461 447C543 456 626 461 702 469C702 469 890 484 1017 538C1017 538 966 349 889 184C783 151 512 225 468 66C433-57 528-114 598-126C875-171 975 160 975 160C983 182 991 204 997 227C992 165 982-119 1274-129C1274-129 1333-131 1343-141C1344-142 1345-141 1346-140C1352-130 1375-85 1308-62ZM602-87C560-81 516-37 544 49C576 147 717 128 831 143C849 145 863 149 875 153C845 89 741-107 602-87Z"  horiz-adv-x="1215" vert-adv-y="1000"  />

      
      <glyph glyph-name="uni4c" unicode="&#x4c;" d="M1559-77C1429-33 1273-57 1191-71C1189-72 1041-98 968-114C968-114 821-139 698-129C616-123 547-104 515-45C515-45 497-16 519 1C519 1 547 19 576-19C602-53 647-112 740-114C936-119 974 150 1051 378C1153 411 1194 452 1209 484C1232 536 1202 565 1202 565C1202 565 1185 585 1151 584C1122 584 1083 572 1043 515C1026 491 1007 450 986 399C919 379 817 365 666 365C612 365 421 368 419 369C336 369 177 368 71 303C21 273 9 243 16 216C17 216 17 216 17 216C58 217 95 189 126 126C126 126 127 126 127 126C100 254 345 276 448 285C529 291 612 294 687 300C687 300 847 308 966 351C894 174 806-68 740-75C659-59 654 32 556 49C556 49 512 58 484 29C469 14 453-22 473-65C505-132 578-166 673-177C807-192 942-170 942-170C1019-162 1109-143 1176-140C1337-132 1556-129 1579-261C1580-263 1581-263 1582-262C1615-236 1728-134 1559-77ZM1074 442C1100 503 1130 530 1142 538C1168 555 1177 538 1177 538C1177 538 1211 490 1068 427C1070 432 1072 437 1074 442Z"  horiz-adv-x="1117" vert-adv-y="1000"  />

      
      <glyph glyph-name="uni4d" unicode="&#x4d;" d="M1367 581C1366 581 1365 581 1365 580C1365 579 1365 578 1365 577C1355 529 1249 411 1183 285C1150 221 1124 142 1107 88C1106 110 1105 136 1106 169C1112 307 1109 541 1058 579L1058 579C1058 580 1057 580 1056 580C1055 579 1055 579 1054 579C974 538 868 526 692 522C638 520 448 519 446 519C363 517 204 512 88 445C34 413 18 383 20 356C20 355 21 355 22 355C62 357 94 330 116 270C116 269 117 269 117 270C112 396 358 424 462 435C545 444 627 449 703 457C703 457 885 471 1012 524C1011 463 994 328 888 166C748-48 542-26 542-26C542-26 440-22 435 64C433 122 478 147 478 147C509 164 554 160 583 133C614 103 631 64 635 54C636 53 637 53 638 54C695 138 616 184 616 184C585 204 557 207 532 206C416 201 390 90 390 90C344-78 518-122 518-122C518-122 792-199 963 152C1007 242 1033 318 1047 380C1046 344 1044 302 1039 254C1026 102 1037 64 1045 37C1045 37 1081-14 1129-10C1130-10 1131-9 1131-8C1130-4 1130 60 1209 245C1245 328 1280 378 1309 417C1142 29 1204-99 1211-113C1212-113 1213-114 1213-115C1281-150 1336-113 1347-105C1348-104 1348-103 1347-103C1205-89 1377 401 1400 491C1420 573 1376 581 1367 581Z"  horiz-adv-x="1388" vert-adv-y="1000"  />

      
      <glyph glyph-name="uni4e" unicode="&#x4e;" d="M1323 578C1323 578 1190 507 1141 31C1141 31 1136-28 1126-74C1121-41 1117 11 1118 88C1121 254 1112 538 1059 580C1059 580 1058 580 1057 580C1057 580 1057 580 1057 580C987 550 870 526 694 522C640 520 449 519 447 519C364 517 205 512 89 445C35 413 19 383 22 356C22 355 22 355 23 355C63 357 95 330 117 270C118 269 118 269 118 270C114 396 359 424 463 435C546 444 629 449 705 457C705 457 886 471 1014 524C1012 463 995 328 890 166C749-48 544-26 544-26C544-26 441-22 437 64C434 122 480 147 480 147C511 164 556 160 584 133C616 103 632 64 637 54C637 53 638 53 639 54C696 138 617 184 617 184C586 204 558 207 533 206C417 201 391 90 391 90C345-78 519-122 519-122C519-122 793-199 965 152C1017 258 1043 346 1055 413C1057 358 1057 284 1052 190C1042 9 1054-37 1061-71C1061-72 1062-73 1062-74C1066-81 1084-114 1111-126C1111-126 1111-126 1111-126C1111-126 1127-133 1143-128C1158-123 1175-106 1186-63C1209 32 1306 565 1438 502C1438 502 1410 579 1323 578Z"  horiz-adv-x="1315" vert-adv-y="1000"  />

      
      <glyph glyph-name="uni4f" unicode="&#x4f;" d="M1292 465C1302 474 1309 483 1314 491C1339 536 1311 565 1311 565C1292 589 1247 585 1247 585C1204 584 1164 570 1128 548C1059 508 1001 441 959 381C891 367 800 358 680 358C626 358 435 361 434 362C350 362 191 361 74 297C19 266 1 236 4 209C4 209 4 209 5 209C45 210 77 182 98 119C98 119 98 119 98 119C95 248 343 269 447 278C530 284 613 287 689 293C689 293 810 299 924 328C894 280 878 244 878 244C878 244 700-131 1005-129C1005-129 1226-143 1321 174C1371 342 1336 425 1292 465ZM1166 510C1206 545 1264 569 1280 538C1280 538 1289 518 1258 488C1242 496 1227 500 1218 502C1216 502 1214 499 1216 498C1222 493 1231 486 1240 473C1209 451 1157 426 1067 400C1094 437 1127 475 1166 510ZM1234 165C1152-66 1042-96 998-93C823-80 963 214 963 214C963 214 986 276 1034 353C1139 377 1212 409 1258 439C1277 389 1283 305 1234 165Z"  horiz-adv-x="1371" vert-adv-y="1000"  />

      
      <glyph glyph-name="uni50" unicode="&#x50;" d="M1277 581C1197 589 1088 439 1036 359C1054 419 1069 468 1075 491C1095 573 1051 580 1042 580C1042 580 1041 580 1041 580C973 551 860 526 676 519C623 517 432 512 430 513C347 509 188 502 74 433C20 401 4 371 7 344C7 343 8 343 9 343C48 345 81 319 103 260C104 259 105 259 105 260C100 386 344 417 448 429C530 439 613 445 688 454C688 454 908 474 1033 543C1019 497 991 433 991 433C816 33 879-99 887-113C887-113 888-114 889-115C956-150 1011-113 1023-105C1023-104 1023-103 1022-103C946-95 960 49 993 196C1299 221 1382 570 1277 581ZM1268 544C1330 533 1138 287 1003 236C1034 286 1201 556 1268 544Z"  horiz-adv-x="1244" vert-adv-y="1000"  />

      
      <glyph glyph-name="uni51" unicode="&#x51;" d="M1320 174C1371 342 1335 425 1291 465C1302 474 1309 483 1314 491C1339 536 1311 565 1311 565C1292 589 1247 585 1247 585C1204 584 1164 570 1127 548C1059 508 1001 441 958 381C891 367 800 358 679 358C626 358 435 361 433 362C350 362 191 361 74 297C18 266 1 236 4 209C4 209 4 209 4 209C45 210 77 182 98 119C98 119 98 119 98 119C94 248 342 269 447 278C530 284 613 287 689 293C689 293 809 299 924 328C894 280 877 244 877 244C877 244 726-76 943-124C810-134 781-137 769-126C768-125 767-126 767-126C765-135 758-169 797-169C836-169 1166-144 1168-206C1168-207 1169-207 1169-207C1174-195 1197-143 1241-151C1242-151 1242-150 1242-150C1237-142 1208-112 1088-114C1161-88 1263-17 1320 174ZM1166 510C1206 545 1264 569 1280 538C1280 538 1289 518 1258 488C1241 496 1227 500 1218 502C1215 502 1214 499 1216 498C1222 493 1231 486 1239 473C1209 451 1156 426 1066 400C1094 437 1127 475 1166 510ZM997-93C823-80 963 214 963 214C963 214 986 276 1034 353C1139 377 1212 409 1258 439C1276 389 1283 305 1233 165C1152-66 1042-96 997-93Z"  horiz-adv-x="1367" vert-adv-y="1000"  />

      
      <glyph glyph-name="uni52" unicode="&#x52;" d="M1299-61C1285-57 1265-55 1235-52C1073-35 1033 178 1029 200C1306 248 1379 571 1278 581C1198 589 1089 439 1037 359C1054 419 1070 468 1076 491C1096 573 1052 580 1043 580C1042 580 1042 580 1042 580C974 551 861 526 677 519C623 517 433 512 431 513C348 509 189 502 74 433C21 401 5 371 8 344C8 343 9 343 9 343C49 345 81 319 104 260C105 259 106 259 106 260C100 386 345 417 448 429C531 439 613 445 689 454C689 454 909 474 1034 543C1020 497 992 433 992 433C816 33 880-99 887-113C888-113 889-114 889-115C957-150 1012-113 1023-105C1024-104 1024-103 1023-103C949-96 960 40 991 182C990 81 1019-120 1264-129C1264-129 1323-131 1333-141C1334-142 1335-142 1336-141C1342-131 1368-83 1299-61ZM1268 544C1331 533 1139 287 1004 236C1035 286 1202 556 1268 544Z"  horiz-adv-x="1252" vert-adv-y="1000"  />

      
      <glyph glyph-name="uni53" unicode="&#x53;" d="M1487 550C1487 550 1451 588 1385 581C1385 581 1215 570 1132 406C1132 406 1072 301 1231 229C1231 229 1348 176 1332 94C1332 94 1303-45 1163-40C1163-40 1100-36 1080 9C1106 13 1129 19 1145 27C1230 69 1194 129 1194 129C1174 172 1121 169 1121 169C1073 168 1040 150 1022 129C995 96 998 56 998 56C998 48 999 41 1001 34C930 28 831 30 696 51C643 59 455 92 453 92C371 105 214 129 88 83C31 62 9 36 6 10C6 8 7 7 9 7C47 1 73-31 84-91C84-92 85-92 86-91C107 31 351 15 454 7C537 1 619-9 695-15C695-15 883-34 1018-2C1063-65 1167-74 1167-74C1333-94 1411-7 1412 82C1412 164 1326 223 1280 249C1252 265 1227 280 1227 280C1193 302 1180 343 1255 435C1346 547 1445 536 1445 536C1495 503 1298 402 1263 345C1262 343 1261 342 1261 340C1262 327 1268 277 1321 264C1321 264 1322 265 1322 266C1322 272 1323 298 1357 330C1397 366 1478 435 1495 475C1508 507 1504 533 1487 550ZM1097 94C1109 104 1136 117 1154 110C1154 110 1178 57 1074 42C1074 42 1074 42 1074 43C1074 43 1074 74 1097 94Z"  horiz-adv-x="1467" vert-adv-y="1000"  />

      
      <glyph glyph-name="uni54" unicode="&#x54;" d="M1378 582C1378 583 1376 583 1375 582C1343 517 1113 590 929 582C825 580 780 517 820 453C820 451 822 451 823 453C855 505 1022 510 1142 508C1129 461 1098 398 1098 398C1006 189 987 78 986 1C916-1 824 7 703 29C650 39 463 77 461 78C379 93 223 122 96 80C38 60 15 35 11 9C11 7 12 6 14 6C52-2 77-34 86-95C86-96 88-96 88-95C113 27 356 4 460-7C542-16 624-29 700-36C700-36 856-59 987-43C988-50 989-59 991-69C992-71 993-74 995-76C1014-104 1044-128 1081-131C1082-131 1084-131 1086-131C1136-122 1196-96 1187-34C1183-3 1129 4 1083 4C1082 153 1165 391 1182 456C1187 478 1188 494 1186 506C1214 505 1237 504 1250 504C1400 499 1384 566 1378 582ZM1151-41C1158-50 1121-84 1105-78C1090-73 1086-45 1085-33C1116-32 1145-33 1151-41Z"  horiz-adv-x="1213" vert-adv-y="1000"  />

      
      <glyph glyph-name="uni55" unicode="&#x55;" d="M1293 581C1292 581 1292 581 1292 580C1291 546 1242 433 1242 433C1222 388 1205 346 1191 308C1135 167 1068-27 983-18C885-8 1026 288 1062 445C1080 525 1059 566 1049 579C1047 582 1043 583 1039 582C959 542 851 526 678 522C625 520 434 519 432 519C349 517 190 512 74 445C20 413 4 383 7 356C7 355 7 355 8 355C48 357 80 330 102 270C103 269 103 269 103 270C99 396 344 424 448 435C531 444 614 449 689 457C689 457 891 467 1018 531C1018 531 1038 481 962 337C875 172 787-51 923-81C1008-99 1074-32 1126 64C1109-56 1133-104 1138-113C1138-113 1139-114 1140-115C1207-150 1262-113 1274-105C1274-104 1274-103 1273-103C1131-89 1303 401 1326 491C1346 573 1302 581 1293 581Z"  horiz-adv-x="1308" vert-adv-y="1000"  />

      
      <glyph glyph-name="uni56" unicode="&#x56;" d="M1435 506C1430 520 1406 579 1332 580C1329 580 1327 580 1326 578C1304 565 1162 466 1079 27C1079 27 1066-47 1050-95C1041-58 1033 6 1048 106C1084 357 1113 538 1064 580C992 550 870 526 693 522C639 520 449 519 447 519C363 517 204 512 83 445C26 413 7 383 7 356C7 355 8 355 8 355C49 357 78 330 95 270C95 269 96 269 96 270C103 396 351 424 456 435C539 444 622 449 699 457C699 457 913 473 1044 537C1038 512 1012 397 980 182C955 17 961-30 966-63C966-63 1002-121 1044-132C1050-133 1058-134 1067-132C1083-127 1101-110 1116-66C1147 27 1307 557 1433 504C1434 503 1436 504 1435 506Z"  horiz-adv-x="1292" vert-adv-y="1000"  />

      
      <glyph glyph-name="uni57" unicode="&#x57;" d="M1484 558C1484 560 1482 561 1481 563C1423 609 1367 579 1354 572C1353 571 1353 569 1354 569C1479 531 1297 104 1248-18C1248 15 1249 55 1255 105C1263 188 1284 292 1301 368C1305 386 1300 405 1286 418C1267 435 1243 446 1224 446C1220 446 1217 444 1215 441C1172 371 1111 202 1078 27C1078 27 1064-47 1048-95C1039-58 1031 6 1046 106C1082 357 1111 538 1062 580C990 550 868 526 691 522C638 520 447 519 445 519C361 517 202 512 81 445C24 413 5 383 5 356C5 355 6 355 6 355C47 357 76 330 93 270C93 269 94 269 94 270C101 396 349 424 454 435C537 444 620 449 697 457C697 457 911 473 1043 537C1036 512 1010 397 978 182C953 17 959-30 964-63C964-63 1001-121 1042-132C1048-133 1056-134 1065-132C1081-127 1099-110 1114-66C1128-24 1153 182 1202 323C1192 280 1180 230 1174 187C1149 23 1160-30 1165-63C1165-63 1214-141 1263-132C1266-98 1330 15 1330 15C1546 405 1493 534 1484 558Z"  horiz-adv-x="1477" vert-adv-y="1000"  />

      
      <glyph glyph-name="uni58" unicode="&#x58;" d="M1079 202C1293 385 1301 495 1300 513C1300 515 1300 516 1299 518C1255 582 1190 581 1176 580C1175 580 1174 579 1175 578C1234 534 1170 415 1084 309C1089 452 1085 551 1048 580C979 550 859 526 683 522C629 520 438 519 436 519C353 517 194 512 78 445C24 413 8 383 11 356C11 355 11 355 12 355C52 357 84 330 106 270C107 269 107 269 107 270C103 396 348 424 452 435C535 444 618 449 694 457C694 457 906 473 1032 537C1029 513 1014 411 1001 224C967 168 861 76 828 0C806-42 802-109 865-131C868-131 870-129 870-127C863-70 965 63 1008 116C1019 73 1044 23 1094-26C1094-26 1109-41 1127-58C1152-83 1183-112 1189-128C1189-130 1192-130 1193-129C1204-116 1231-75 1197-25C1167 19 1083 95 1079 202Z"  horiz-adv-x="1227" vert-adv-y="1000"  />

      
      <glyph glyph-name="uni59" unicode="&#x59;" d="M1331 507C1331 509 1330 511 1330 512C1289 579 1225 582 1210 581C1209 581 1209 580 1209 579C1269 529 1186 402 1086 297C1079 447 1067 550 1026 580C959 550 842 526 665 522C612 520 421 519 419 519C336 517 178 512 68 445C17 413 3 383 8 356C8 355 9 355 9 355C49 357 84 330 111 270C111 269 112 269 112 270C96 396 340 424 443 435C524 444 607 449 682 457C682 457 893 473 1014 537C1012 513 1007 410 1010 219C939-16 980-102 986-113C987-113 988-114 988-115C1056-150 1111-113 1122-105C1123-104 1123-103 1122-103C1043-95 1061 61 1097 213C1316 381 1330 489 1331 507Z"  horiz-adv-x="1238" vert-adv-y="1000"  />

      
      <glyph glyph-name="uni5a" unicode="&#x5a;" d="M616-91C616-91 616-91 616-91C707-82 947-56 955-132C955-134 957-134 957-133C1026-16 948 7 821-13C694-32 630-42 596-42C602 20 678 119 764 214C784 212 799 209 806 208C888 195 886 249 884 261C884 262 883 262 882 262C872 249 842 251 806 258C898 355 992 442 1023 475C1047 500 1058 520 1062 536C1069 565 1048 580 1048 580C1047 580 1046 580 1045 580C970 564 853 555 701 563C647 566 457 581 456 581C372 586 213 594 93 537C36 510 17 481 18 454C18 454 18 453 19 453C59 452 89 422 106 360C106 360 107 360 107 360C113 487 360 494 465 496C548 498 630 496 707 498C707 498 873 497 1002 533C964 497 915 459 915 459C829 392 760 332 705 278C681 282 657 284 636 281C599 279 554 257 565 213C566 210 570 209 573 210C589 219 618 222 650 222C493 52 491-33 491-33C511-74 541-88 568-93C568-93 583-95 616-91Z"  horiz-adv-x="986" vert-adv-y="1000"  />

      
      <glyph glyph-name="uni61" unicode="&#x61;" d="M295 198C285 200 281 182 281 182C269 143 222 41 188 52C188 52 170 59 181 131C187 174 214 262 237 309C238 311 238 312 237 314C228 329 204 343 191 346C189 346 187 346 186 344C182 334 177 322 172 309C168 325 160 345 142 356C108 374 35 323 7 191C7 191-31 25 45 2C83-9 107 35 120 76C122 61 132-15 165-15C200-15 269 51 297 166C298 171 304 195 295 198ZM116 134C113 127 110 118 107 110C96 83 81 56 63 59C63 59 38 68 84 203C124 321 158 306 154 266C154 260 153 250 149 235C144 213 131 172 116 134Z"  horiz-adv-x="273" vert-adv-y="1000"  />

      
      <glyph glyph-name="uni62" unicode="&#x62;" d="M290 198C281 202 273 186 273 186C259 160 220 108 188 87C203 116 215 150 222 183C242 265 235 356 175 356C156 356 138 342 122 323C147 392 172 462 183 510C184 512 183 514 182 515C160 535 123 548 93 552C91 552 89 550 90 549C94 494 83 447 83 447C70 366 28 277 9 198C9 198-31 54 8 7C15-1 24-7 36-8C36-8 61-11 75 7C75 7 69 7 64 19C69 15 76 11 84 10C87 9 91 8 95 8C136 3 233 62 285 167C287 171 299 193 290 198ZM66 133C68 142 70 151 72 161C83 190 132 323 167 318C205 313 122 61 87 57C87 57 53 49 66 133Z"  horiz-adv-x="264" vert-adv-y="1000"  />

      
      <glyph glyph-name="uni63" unicode="&#x63;" d="M141 299C156 280 132 244 116 230C112 226 113 221 118 219C131 214 156 214 166 266C182 340 142 356 142 356C108 374 36 325 7 199C7 199-50-29 125 4C163 11 220 59 248 168C249 172 255 196 246 198C236 200 232 183 232 183C220 146 173 54 131 47C19 28 84 210 84 210C107 275 132 309 141 299Z"  horiz-adv-x="223" vert-adv-y="1000"  />

      
      <glyph glyph-name="uni64" unicode="&#x64;" d="M190 183C214 280 290 427 309 510C310 512 309 514 308 515C286 535 249 549 218 552C216 552 215 551 215 549C220 494 209 447 209 447C202 404 185 358 169 313C165 328 157 346 139 356C106 374 33 323 4 191C4 191-34 25 42 2C81-9 105 35 118 76C120 61 130-15 163-15C198-15 267 51 295 166C296 171 302 195 293 198C283 200 279 182 279 182C267 143 217 35 185 48C185 48 167 52 179 131C182 154 190 183 190 183ZM114 134C111 127 108 118 105 110C94 83 79 56 61 59C61 59 36 68 81 203C121 318 154 307 152 269C152 261 151 249 147 235C140 213 129 172 114 134Z"  horiz-adv-x="272" vert-adv-y="1000"  />

      
      <glyph glyph-name="uni65" unicode="&#x65;" d="M247 198C237 200 233 183 233 183C221 146 173 57 133 50C83 42 69 75 68 113C91 112 139 122 173 205C228 337 142 356 142 356C99 366 36 325 7 199C7 199-51-33 125 4C161 11 221 59 249 168C250 172 256 196 247 198ZM138 309C154 308 155 242 126 195C114 175 92 153 70 150C75 182 84 210 84 210C84 210 116 311 138 309Z"  horiz-adv-x="223" vert-adv-y="1000"  />

      
      <glyph glyph-name="uni66" unicode="&#x66;" d="M239 217C235 224 220 214 220 214C193 196 175 189 149 188C129 188 100 192 85 211C113 287 152 367 166 441C166 442 166 444 165 446C150 473 111 485 76 487C74 488 73 486 73 484C81 449 71 400 71 400C47 277 16 223-3 151C-3 151-92-139 37-136C136-133 146 65 115 160C152 154 190 168 222 191C229 196 243 209 239 217ZM44-92C12-89 61 134 61 134C63 140 64 146 66 152C107 95 74-94 44-92Z"  horiz-adv-x="184" vert-adv-y="1000"  />

      
      <glyph glyph-name="uni67" unicode="&#x67;" d="M524-188C433-180 417-130 414-113C414-111 412-110 410-111C384-133 259-139 114-83C128-58 138-31 147-6C152-12 159-15 166-15C201-15 270 51 297 166C299 171 305 195 296 198C286 200 281 182 281 182C269 143 222 41 189 52C189 52 171 59 181 131C188 174 214 262 237 309C238 311 238 312 237 314C228 329 205 343 191 346C189 346 188 346 187 344C182 334 177 322 172 309C169 325 161 345 142 356C109 374 36 323 7 191C7 191-31 25 45 2C84-9 107 35 121 76C121 75 121 75 121 75C107 17 89-29 70-65C-126 13-145-106-145-106C-153-141-142-168-127-184C-99-215-52-213-52-213C4-213 48-181 81-137C129-164 187-194 256-209C369-232 485-204 524-193C527-192 527-188 524-188ZM63 59C63 59 39 68 84 203C124 321 158 306 155 266C155 260 153 250 150 235C144 213 132 172 117 134C114 127 111 118 107 110C97 83 82 56 63 59ZM-60-167C-60-167-121-166-109-113C-99-65-36-78-36-78C-16-81 9-95 39-112C6-151-29-168-60-167Z"  horiz-adv-x="274" vert-adv-y="1000"  />

      
      <glyph glyph-name="uni68" unicode="&#x68;" d="M312 198C302 200 298 182 298 182C286 143 238 41 205 52C205 52 187 59 197 131C203 170 223 232 238 269C246 290 242 313 226 328C214 339 197 348 179 357C176 359 173 358 171 356C113 284 75 146 58 72C59 98 65 133 77 183C102 280 164 427 183 510C184 512 183 514 182 515C160 535 123 548 93 552C91 552 89 550 89 549C94 494 83 447 83 447C69 366 28 277 9 198C9 198-31 54 8 7C15-1 24-7 36-8C36-8 42-9 51-7C69-2 76 16 78 25C88 81 113 207 158 279C158 279 174 308 178 304C180 303 178 299 175 293C171 283 165 270 165 270C143 219 120 145 129 78C129 78 138-15 175-15C210-15 286 51 314 166C315 171 321 195 312 198Z"  horiz-adv-x="289" vert-adv-y="1000"  />

      
      <glyph glyph-name="uni69" unicode="&#x69;" d="M173 198C163 200 159 182 159 182C147 143 100 41 66 52C66 52 50 58 62 130C69 171 101 256 118 297C119 299 120 301 119 303C113 339 75 355 49 359C47 359 46 358 46 357C44 292-5 194-10 87C-14-16 43-15 43-15C78-15 147 51 175 166C176 171 182 195 173 198ZM101 360C119 356 135 362 136 374C137 386 123 399 104 403C86 407 70 401 69 389C68 377 82 364 101 360Z"  horiz-adv-x="149" vert-adv-y="1000"  />

      
      <glyph glyph-name="uni6a" unicode="&#x6a;" d="M102 360C121 356 136 362 137 374C138 386 124 399 106 403C87 407 71 401 70 389C69 377 84 364 102 360ZM405-188C315-180 299-130 296-113C296-111 293-110 292-111C266-133 141-139-4-83C8-59 19-34 27-10C37-15 45-15 45-15C80-15 148 51 176 166C177 171 184 195 174 198C164 200 160 182 160 182C148 143 101 41 67 52C67 52 51 58 63 130C70 171 102 256 120 297C121 299 121 301 120 303C114 339 76 355 50 359C48 359 47 358 47 357C45 298 4 210-6 114C-18 42-37-16-59-61C-245 9-263-106-263-106C-271-141-260-168-246-184C-217-215-170-213-170-213C-114-213-70-181-37-137C11-164 69-194 138-209C251-232 367-204 406-193C409-192 408-188 405-188ZM-179-167C-179-167-239-166-228-113C-217-65-155-78-155-78C-136-81-113-93-87-108C-116-148-149-168-179-167Z"  horiz-adv-x="153" vert-adv-y="1000"  />

      
      <glyph glyph-name="uni6b" unicode="&#x6b;" d="M300 198C290 200 286 182 286 182C274 143 226 41 193 52C193 52 184 56 184 88C184 88 184 104 182 123C178 152 164 189 129 201C168 214 211 239 226 270C244 310 215 349 204 363C202 365 199 364 200 361C201 326 170 261 94 233C123 325 169 440 185 510C186 512 185 514 184 515C162 535 125 548 94 552C93 552 91 550 91 549C96 494 85 447 85 447C71 366 30 277 10 198C10 198-29 54 10 7C17-1 26-7 38-8C38-8 63-11 77 7C77 7 37 10 78 177C105 177 112 131 115 99C116 82 117 68 117 68C119-16 170-15 170-15C205-15 274 51 302 166C303 171 309 195 300 198Z"  horiz-adv-x="278" vert-adv-y="1000"  />

      
      <glyph glyph-name="uni6c" unicode="&#x6c;" d="M46-6C81-7 148 51 176 166C177 171 183 195 174 198C164 200 160 182 160 182C148 143 99 35 66 48C66 48 47 56 60 131C64 154 73 186 73 186C98 284 162 402 181 484C181 485 181 487 180 488C159 508 121 522 90 525C88 525 87 524 87 522C92 468 81 428 81 428C63 347 30 268 10 194C10 194-50-4 46-6Z"  horiz-adv-x="152" vert-adv-y="1000"  />

      
      <glyph glyph-name="uni6d" unicode="&#x6d;" d="M42-15C66-13 73 16 75 25C85 80 111 206 155 279C155 279 172 308 176 304C177 303 175 299 172 293C168 283 162 270 162 270C134 197 125 150 127 78C127 78 127 21 168 18C203 16 214 75 214 75C227 137 250 224 284 279C284 279 301 308 305 304C306 303 304 299 301 293C297 283 291 270 291 270C269 219 246 145 255 78C255 78 264-15 301-15C336-15 407 51 435 166C436 171 443 195 434 198C423 200 419 182 419 182C407 143 355 38 327 52C327 52 315 57 325 131C331 175 347 223 358 253C358 253 387 330 342 351C304 369 273 322 273 322C240 273 212 180 194 111C195 117 195 123 197 131C203 175 218 223 229 253C229 253 258 330 213 351C175 369 145 322 145 322C104 262 71 137 55 69C55 85 57 105 62 130C69 171 101 258 118 298C118 299 118 301 118 302C112 339 73 355 46 359C45 359 44 359 44 358C44 310 17 243 2 167C-9 110-26-8 36-15C36-15 38-15 42-15Z"  horiz-adv-x="412" vert-adv-y="1000"  />

      
      <glyph glyph-name="uni6e" unicode="&#x6e;" d="M308 198C297 200 293 182 293 182C281 143 229 38 201 52C201 52 189 57 199 131C206 175 221 223 232 253C232 253 261 330 216 351C178 369 147 322 147 322C106 260 72 129 56 63C56 80 58 102 63 130C70 171 102 258 119 298C119 299 120 301 119 302C114 339 74 355 47 359C47 359 46 359 46 358C45 310 19 243 4 167C-8 110-25-8 37-15C37-15 40-16 45-15C69-13 76 16 78 25C88 80 113 206 158 279C158 279 175 308 179 304C180 303 178 299 175 293C171 283 165 270 165 270C143 219 120 145 130 78C130 78 138-15 175-15C210-15 282 51 309 166C310 171 317 195 308 198Z"  horiz-adv-x="284" vert-adv-y="1000"  />

      
      <glyph glyph-name="uni6f" unicode="&#x6f;" d="M289 217C287 224 277 214 277 214C257 196 243 189 228 189C214 189 206 194 195 214C191 224 186 232 178 238C185 258 185 280 185 280C185 280 190 332 155 349C110 370 44 324 9 197C9 197-38 29 66-12C66-12 99-23 127-8C146 2 168 23 185 72C185 72 200 116 202 160C229 154 255 167 278 191C282 196 292 209 289 217ZM154 103C125-4 76 23 76 23C54 33 58 79 62 109C68 154 89 203 89 203C140 328 176 295 161 248C159 249 156 250 153 250C138 253 129 247 123 236C123 235 124 233 125 233C140 230 178 193 154 103Z"  horiz-adv-x="249" vert-adv-y="1000"  />

      
      <glyph glyph-name="uni70" unicode="&#x70;" d="M302 198C292 202 284 186 284 186C267 156 216 89 183 78C200 109 213 147 222 183C241 265 234 355 174 355C148 355 124 329 105 299C105 304 105 309 105 313C105 314 104 316 104 317C86 340 63 354 34 359C33 359 33 358 33 357C34 347 38 298 6 176C-22 68-69-45-74-120C-74-120-84-211-32-229C-31-229-31-228-31-228C-39-200-18-139 18-146C19-146 20-145 19-145C7-119 12-85 12-85C17-43 30 4 43 51C48 31 60 15 83 10C87 9 91 8 95 8C145-1 244 61 296 167C299 171 310 193 302 198ZM67 139C69 147 70 154 72 162C83 193 132 323 166 318C205 313 122 61 86 57C86 57 51 49 67 139Z"  horiz-adv-x="267" vert-adv-y="1000"  />

      
      <glyph glyph-name="uni71" unicode="&#x71;" d="M294 198C284 200 280 182 280 182C268 143 220 41 187 52C187 52 169 59 179 131C180 134 181 138 181 142C182 147 184 152 185 157C195 204 217 271 236 309C236 311 236 312 235 314C227 329 203 343 189 346C188 346 186 346 185 344C181 334 176 322 170 309C167 325 159 345 140 356C107 374 34 323 5 191C5 191-33 25 43 2C73-7 94 17 108 47C88-16 69-75 66-120C66-120 56-213 110-229C100-202 122-137 160-146C144-111 147-72 147-72C148-51 149-31 152-11C155-14 160-15 164-15C199-15 268 51 296 166C297 171 303 195 294 198ZM106 110C95 83 80 56 62 59C62 59 37 68 82 203C123 321 156 306 153 266C153 260 152 250 148 235C142 213 130 172 115 134C112 127 109 118 106 110Z"  horiz-adv-x="272" vert-adv-y="1000"  />

      
      <glyph glyph-name="uni72" unicode="&#x72;" d="M214 351C176 368 146 322 146 322C104 260 70 129 55 63C55 80 56 102 61 130C68 171 100 258 117 298C118 299 118 301 118 302C112 339 72 355 45 359C45 359 44 359 44 358C43 310 17 243 2 167C-9 110-26-8 35-15C35-15 38-16 43-15C67-13 74 16 76 25C86 80 112 206 156 279C156 279 170 303 177 304C177 304 204 311 160 224C160 223 161 222 162 221C182 218 212 220 226 240C226 240 261 330 214 351Z"  horiz-adv-x="233" vert-adv-y="1000"  />

      
      <glyph glyph-name="uni73" unicode="&#x73;" d="M114 88C99 161 72 291 116 358C117 359 116 361 115 361C90 363 60 356 31 333C0 295-3 242 10 191C5 172-4 148-15 126C-15 130-15 134-15 138C-14 142-19 145-22 142C-33 131-49 107-49 66C-51 63-54 60-56 58C-56 58-68 45-61 36C-57 32-52 35-46 39C-34-11 14-38 51-30C92-20 130 10 114 88ZM48 9C29-10-2 21-12 78C4 100 17 123 26 145C39 112 69 29 48 9Z"  horiz-adv-x="149" vert-adv-y="1000"  />

      
      <glyph glyph-name="uni74" unicode="&#x74;" d="M448 472C441 480 401 511 229 488C212 486 197 483 182 481C185 493 188 503 191 513C191 514 191 515 190 515C168 536 129 550 97 553C97 553 96 552 96 552C99 516 95 485 92 469C-10 454-35 451-47 460C-48 460-49 460-49 459C-50 452-55 419-14 422C-2 423 35 427 82 432C60 352 29 267 9 194C9 194-51-4 45-6C80-7 147 51 175 166C176 171 182 195 173 198C163 200 159 182 159 182C147 143 97 35 65 48C65 48 46 56 59 131C63 154 72 186 72 186C93 262 138 360 167 439C267 445 372 445 376 413C376 413 376 413 377 413C381 425 401 475 448 470C448 470 449 471 448 472Z"  horiz-adv-x="151" vert-adv-y="1000"  />

      
      <glyph glyph-name="uni75" unicode="&#x75;" d="M318 198C308 200 304 182 304 182C292 143 244 41 211 52C211 52 195 58 207 130C214 171 246 256 263 297C264 299 264 301 264 303C258 339 220 355 194 359C192 359 191 358 191 357C190 316 169 261 153 199C135 135 98 42 67 52C67 52 51 58 63 130C70 171 102 256 119 297C120 299 121 301 120 303C114 339 76 355 50 359C48 359 47 358 47 357C45 292-3 194-9 87C-14-5 52 0 52 0C79 0 109 24 135 68C138-16 188-15 188-15C223-15 292 51 320 166C321 171 327 195 318 198Z"  horiz-adv-x="295" vert-adv-y="1000"  />

      
      <glyph glyph-name="uni76" unicode="&#x76;" d="M53-16C56-18 59-16 62-15C136 22 203 176 206 253C209 315 162 347 144 357C142 359 140 356 141 352C158 306 157 118 75 45C75 45 59 62 66 134C68 175 91 266 104 307C104 308 104 309 104 310C95 347 53 359 26 360C25 360 25 359 25 359C31 295-7 191-1 83C-1 83 0 9 53-16Z"  horiz-adv-x="221" vert-adv-y="1000"  />

      
      <glyph glyph-name="uni77" unicode="&#x77;" d="M66 130C68 172 92 265 104 307C104 308 104 309 104 310C95 347 53 359 26 360C25 360 25 359 25 359C31 295-8 193-3 87C0 3 38-13 53-16C56-17 59-16 62-15C85-3 102 15 117 43C129-3 155-14 167-16C170-17 173-17 176-15C235 9 310 175 313 253C315 315 269 347 251 357C248 359 246 356 247 352C265 300 239 89 190 45C190 45 172 56 178 123C181 155 185 180 191 207C211 290 165 303 145 306C137 307 138 304 139 299C141 284 135 242 135 242C135 242 114 94 75 45C75 45 60 58 66 130Z"  horiz-adv-x="328" vert-adv-y="1000"  />

      
      <glyph glyph-name="uni78" unicode="&#x78;" d="M231 198C221 200 217 182 217 182C205 143 157 47 117 43C117 43 103 41 92 58C92 58 74 81 73 125C124 148 182 205 187 263C192 318 150 351 129 364C125 366 122 362 123 357C137 315 134 218 75 176C77 207 81 237 86 263C86 263 93 304 95 327C95 329 94 331 93 332C76 354 44 361 7 361C6 361 5 360 5 358C21 316 2 218 6 126C-18 104-52 63-39 13C-39 13-29-26-2-25C0-25 1-22 1-19C-3-3-12 45 10 79C10 79 10 78 10 78C10 78 17-19 101-15C136-14 205 51 233 166C234 171 240 195 231 198Z"  horiz-adv-x="209" vert-adv-y="1000"  />

      
      <glyph glyph-name="uni79" unicode="&#x79;" d="M549-188C459-180 443-130 440-113C440-111 437-110 436-111C410-133 285-139 140-83C152-59 162-35 171-11C180-15 188-15 188-15C222-15 291 51 319 166C320 171 326 195 317 198C307 200 303 182 303 182C291 143 244 41 210 52C210 52 194 58 206 130C213 171 245 256 263 297C263 299 264 301 263 303C257 339 219 355 193 359C191 359 190 358 190 357C189 316 169 261 153 199C134 135 97 42 66 52C66 52 50 58 62 130C69 171 101 256 119 297C119 299 120 301 119 303C113 339 75 355 49 359C47 359 46 358 46 357C44 292-4 194-10 87C-14-5 52 0 52 0C75 0 102 19 126 55C115 9 101-29 85-61C-101 9-119-106-119-106C-127-141-116-168-102-184C-74-215-27-213-27-213C30-213 73-181 107-137C155-164 213-194 282-209C395-232 510-204 550-193C553-192 552-188 549-188ZM-35-167C-35-167-95-166-84-113C-73-65-11-78-11-78C8-81 30-93 57-108C27-148-5-168-35-167Z"  horiz-adv-x="295" vert-adv-y="1000"  />

      
      <glyph glyph-name="uni7a" unicode="&#x7a;" d="M545-188C455-180 439-130 436-113C435-111 433-110 431-111C406-132 286-139 145-87C232 104 132 213 132 213C175 231 194 275 196 306C196 309 196 311 194 313C185 330 166 346 144 355C143 355 142 356 141 355C71 353 55 380 52 392C52 393 51 394 50 393C34 380 22 366 19 353C18 338 23 326 32 317C35 272 14 191 1 162C1 162-8 146 1 140C9 135 20 157 23 161C48 210 60 258 63 298C105 284 159 299 159 299C159 299 128 240 65 226C64 226 63 224 64 223C77 204 144 98 75-59C-106 6-124-106-124-106C-132-141-121-168-106-184C-78-215-31-213-31-213C25-213 77-185 112-142C158-168 213-195 277-209C391-232 506-204 545-193C548-192 548-188 545-188ZM-39-167C-39-167-99-166-88-113C-78-65-15-78-15-78C3-81 24-91 49-106C20-147-9-168-39-167Z"  horiz-adv-x="219" vert-adv-y="1000"  />

      
      <glyph glyph-name="unie6" unicode="&#xe6;" d="M286 1C301-1 320-1 342 4C377 11 438 59 465 168C466 172 473 196 464 198C453 200 449 183 449 183C437 146 389 57 350 50C300 42 285 75 284 113C308 112 356 122 390 205C444 337 359 356 359 356C340 360 317 355 295 337C287 341 280 345 274 346C272 346 270 346 270 344C265 334 260 322 255 309C251 325 243 345 225 356C191 374 118 323 90 191C90 191 52 25 128 2C166-9 190 35 203 76C203 76 219 10 286 1ZM355 309C370 308 371 242 343 195C330 175 309 153 287 150C291 182 301 210 301 210C301 210 332 311 355 309ZM199 134C197 127 193 118 190 110C179 83 164 56 146 59C146 59 121 68 167 203C207 321 241 306 238 266C237 260 236 250 232 235C227 213 214 172 199 134Z"  horiz-adv-x="522" vert-adv-y="1000"  />

      
      <glyph glyph-name="uni0153" unicode="&#x0153;" d="M497 198C486 200 482 183 482 183C470 146 422 57 383 50C333 42 318 75 317 113C341 112 389 122 423 205C477 337 392 356 392 356C354 365 299 333 267 237C267 237 266 238 265 238C272 258 273 280 273 280C273 280 277 332 242 349C198 370 132 324 96 197C96 197 49 29 153-12C153-12 187-23 214-8C230 0 247 15 262 46C278 12 311-10 375 4C411 11 471 59 498 168C500 172 506 196 497 198ZM334 210C334 210 365 311 388 309C403 308 404 242 376 195C364 175 342 153 320 150C325 182 334 210 334 210ZM163 23C142 33 146 79 150 109C156 154 176 203 176 203C227 328 263 295 248 248C246 249 243 250 240 250C225 253 216 247 211 236C210 235 211 233 212 233C227 230 265 193 241 103C212-4 163 23 163 23Z"  horiz-adv-x="556" vert-adv-y="1000"  />

      
      <glyph glyph-name="uni30" unicode="&#x30;" d="M275 580C258 580 238 577 217 569C197 561 176 547 156 525C156 525 137 506 118 473C108 457 99 437 91 415C83 393 77 367 76 340C76 332 76 323 76 313C64 284 55 257 49 231C42 204 38 178 37 155C35 126 38 101 44 79C49 63 56 49 64 37C76 19 92 5 109-4C127-13 146-17 166-17C179-17 192-15 205-12C207-11 214-10 224-6C240 2 267 17 296 48C325 79 356 125 384 194L384 194C384 195 393 217 402 251C407 268 412 288 416 310C420 331 423 354 424 377C425 396 425 415 422 434C421 448 418 462 414 475C408 495 399 513 386 529C374 545 357 558 336 568C309 581 275 580 275 580ZM336 268C266 69 186-6 132 15C90 40 70 118 147 298C147 298 151 309 159 324C168 342 187 394 164 409C142 423 125 399 122 395C126 414 134 435 150 462C215 565 284 559 313 551L313 551C313 551 326 548 338 536C410 465 336 268 336 268Z"  horiz-adv-x="459" vert-adv-y="1000"  />

      
      <glyph glyph-name="uni31" unicode="&#x31;" d="M239 568C239 568 239 568 239 568C229 576 217 570 206 559C203 557 201 555 199 553C180 533 151 516 126 512C86 507 85 474 85 474C83 449 114 450 130 454C134 455 159 466 167 479C100 378 33 216 27 100C25 69 21-1 50-17C70-29 76 8 77 24C86 117 116 206 150 288C171 339 195 389 219 440C234 472 273 538 239 568Z"  horiz-adv-x="275" vert-adv-y="1000"  />

      
      <glyph glyph-name="uni32" unicode="&#x32;" d="M216 62C193 55 127 38 59 28C145 98 217 172 269 286C275 300 285 320 292 342C294 347 297 356 298 360C313 405 320 465 316 503C316 506 312 554 284 567C271 574 255 571 238 559C172 521 160 455 174 430C190 403 210 444 210 444C275 560 284 521 285 517C287 501 286 459 252 390C212 316 169 258 114 199C103 187 77 158 56 135C47 125 39 114 32 103C19 79 7 50 13 28C21 0 50-9 57-10C248-34 276 14 269 49C263 77 232 69 216 62Z"  horiz-adv-x="350" vert-adv-y="1000"  />

      
      <glyph glyph-name="uni33" unicode="&#x33;" d="M299 339C302 346 306 360 306 360C321 405 328 465 325 503C324 506 320 554 292 567C279 574 263 571 246 559C180 521 168 455 182 430C198 403 218 444 218 444C283 560 292 521 293 517C295 501 294 459 260 390C246 364 231 339 216 317C212 311 194 284 205 267C213 256 231 251 250 266C250 196 201 115 201 115L201 115C181 82 163 59 148 43C143 39 103 1 70 15C56 22 49 33 46 50C42 78 62 137 97 164C137 195 121 219 121 219C106 242 84 225 70 212C22 169 14 93 14 89C14 89 14 89 14 89C12 51 20 23 38 5C55-11 78-15 96-15C114-15 128-11 131-11C167-2 210 24 244 64C256 77 267 92 277 108L277 108C277 108 277 108 277 108C277 108 277 108 277 109L277 109C280 112 313 168 319 237C320 256 319 275 316 295C313 311 307 326 299 339Z"  horiz-adv-x="365" vert-adv-y="1000"  />

      
      <glyph glyph-name="uni34" unicode="&#x34;" d="M74 209C76 209 95 201 123 197C118 173 115 148 113 122C110 89 103 12 134-8C156-22 164 19 166 36C172 93 184 145 201 198C216 200 231 205 246 212C269 222 300 242 287 272C287 272 271 295 234 283C257 339 280 374 307 427C325 462 370 533 335 568C308 594 258 511 245 489C199 409 160 334 136 250C108 247 81 248 63 254C78 282 91 304 98 315C104 325 115 341 115 341C135 372 160 412 178 450C188 470 194 489 179 501C156 519 114 455 114 455C97 433 64 389 28 334C21 325 13 302 16 275C18 256 26 238 47 224C47 224 59 216 74 209Z"  horiz-adv-x="379" vert-adv-y="1000"  />

      
      <glyph glyph-name="uni35" unicode="&#x35;" d="M211 421C220 436 228 453 228 453C239 475 251 502 253 525C405 480 434 519 432 553C431 582 399 580 383 576C360 574 297 568 232 569C215 568 197 552 190 544C172 523 156 497 150 485C146 479 142 472 138 465C138 465 114 424 153 404C165 399 177 391 190 382C221 361 251 330 260 292C276 218 213 115 213 115L213 115C194 82 175 59 160 43C156 39 115 1 82 15C68 22 61 33 59 50C55 78 75 137 109 164C149 195 133 219 133 219C119 242 96 225 83 212C34 169 27 93 27 89C27 89 27 89 27 89C24 51 32 23 51 5C68-11 90-15 109-15C126-15 141-11 143-11C180-2 222 24 257 64C268 77 279 92 290 108L290 108C290 108 290 108 290 108C290 108 290 108 290 109L290 109C292 112 325 168 331 237C332 256 332 275 328 295C316 360 256 400 211 421Z"  horiz-adv-x="448" vert-adv-y="1000"  />

      
      <glyph glyph-name="uni36" unicode="&#x36;" d="M113 248C118 264 123 280 130 297C206 502 271 540 293 546C297 547 332 554 265 439C265 439 240 401 268 396C294 391 342 429 345 514C346 527 346 536 346 536C343 566 323 574 323 574C303 586 269 574 269 574L269 574C254 568 237 560 220 547C193 528 165 501 137 463C110 425 83 377 61 315C39 256 28 206 26 163C25 133 28 106 34 84C38 67 45 52 53 40C65 21 81 7 98-2C116-11 135-16 155-16C171-16 187-13 203-8C222-1 239 10 253 23C276 44 293 71 305 100C318 129 325 160 327 190C327 204 327 218 324 230C323 240 320 249 317 258C312 270 305 281 295 290C285 298 274 304 260 306C258 306 249 309 234 309C223 309 209 307 195 303C137 288 113 248 113 248ZM150 8C114 12 83 43 87 122C90 167 107 201 107 201L107 201C111 208 114 214 117 219C127 233 137 244 147 253C162 266 178 274 193 279C208 284 222 285 233 285C240 284 274 277 258 182C248 127 231 78 208 46C208 46 182 8 150 8Z"  horiz-adv-x="382" vert-adv-y="1000"  />

      
      <glyph glyph-name="uni37" unicode="&#x37;" d="M403 572C314 556 199 567 166 571C150 574 118 577 114 548C108 509 142 465 359 541C350 534 342 527 338 523C228 421 107 241 61 118C50 89 24 16 41-5C56-24 73 9 79 24C109 98 207 258 257 320C291 363 338 409 375 449C398 473 451 520 435 560C430 573 413 573 403 572Z"  horiz-adv-x="453" vert-adv-y="1000"  />

      
      <glyph glyph-name="uni38" unicode="&#x38;" d="M371 479C366 499 358 516 348 530C327 558 296 573 261 573C247 573 232 571 218 566C148 542 106 449 107 376C108 334 123 303 149 290C58 253 35 172 30 135C30 135 26 108 30 89C35 67 44 48 56 32C79 1 114-16 153-16C168-16 185-13 201-8C279 19 326 123 324 204C324 254 304 290 272 302C347 337 365 406 371 438C376 464 371 479 371 479ZM250 181C239 117 220 63 194 33C194 33 172 7 148 8C111 12 80 43 84 122C87 167 105 201 105 201L105 201C112 215 120 227 128 237C144 255 163 269 184 277C202 283 212 283 225 283C233 283 265 274 250 181ZM233 311C233 311 215 305 197 307C189 308 157 316 174 399C208 558 266 552 266 552C298 548 320 523 316 452C314 411 298 381 298 381C298 381 269 322 233 311Z"  horiz-adv-x="405" vert-adv-y="1000"  />

      
      <glyph glyph-name="uni39" unicode="&#x39;" d="M53 167C43 148 38 129 34 114C34 114 32 104 30 86C29 76 30 67 31 58C33 43 37 31 42 21C47 14 52 7 57 3C66-5 75-10 85-12C113-18 147-11 147-11C164-7 182 1 200 14C228 32 255 60 282 99C309 138 334 187 356 248C378 307 389 358 391 401C392 431 389 457 383 480C379 497 372 511 364 524C352 543 336 557 319 566C301 575 282 579 262 579C246 579 230 576 214 571C195 565 178 554 163 540C141 520 124 493 112 463C99 434 92 403 90 374C90 360 90 346 93 333C94 323 97 314 100 306C105 293 112 282 122 274C132 265 143 260 157 257C159 257 168 255 183 255C194 255 208 256 222 260C234 263 246 268 258 274C273 284 290 297 304 315C299 300 294 284 287 267C241 141 196 76 164 43C159 39 119 1 86 15C72 22 65 33 62 50C58 78 78 137 113 164C153 195 137 219 137 219C122 242 99 225 86 212C67 194 53 167 53 167ZM184 279C177 279 143 287 159 381C175 476 214 553 265 556C265 556 293 558 311 531C323 512 333 485 330 442C327 396 310 362 310 362C310 362 295 331 270 310C270 310 230 277 184 279Z"  horiz-adv-x="421" vert-adv-y="1000"  />

      
      <glyph glyph-name="unia2" unicode="&#xa2;" d="M252 351C248 356 243 360 239 363L244 380C246 385 243 392 238 395C233 398 227 397 225 392L220 375C202 383 185 383 175 382C125 373 91 326 76 281C76 281 47 208 66 119C70 98 81 61 106 32L95 0C93-6 96-12 101-15C103-17 105-17 107-17C110-17 113-15 114-12L123 16C126 13 130 11 134 8C144 3 161-5 182-6C186-7 191-7 196-6L196-6C208-5 219-2 228 2C232 4 236 6 239 8C264 24 269 51 262 62C261 64 260 65 259 66C245 74 239 56 239 56C228 28 210 22 204 21C178 17 154 30 136 55L231 341C232 340 233 340 234 340C250 330 225 280 225 280C225 280 225 280 225 279C223 275 216 257 233 246C252 233 269 248 275 264L275 264C291 314 252 351 252 351ZM113 200C124 271 173 324 207 338L122 82C111 113 106 153 113 200Z"  horiz-adv-x="336" vert-adv-y="1000"  />

      
      <glyph glyph-name="uni24" unicode="&#x24;" d="M363 521C355 538 343 550 335 556L340 570C343 577 339 587 333 592C326 597 318 595 316 587L310 570C302 573 293 575 284 575L284 575C284 575 284 575 284 575C283 575 282 575 282 575C281 575 280 575 280 575C280 575 280 575 280 575C266 574 254 570 250 569C223 559 185 535 197 445C201 410 215 373 231 336L210 275C196 311 168 329 168 329C168 329 135 352 89 343C30 330 19 262 17 239C15 216 17 188 25 153L25 153C25 153 44 58 121 12L116-3C114-11 117-21 124-26C126-28 128-28 131-28C135-28 139-26 140-21L147 0C153-3 159-4 165-6C166-6 166-6 166-6L166-6C173-8 181-10 189-11C193-11 196-12 200-12C251-14 272-7 299 9C337 31 353 64 359 102C359 108 360 114 361 119C365 167 354 210 349 229C330 285 301 343 279 389L313 490C318 481 323 472 327 461C330 455 336 446 344 446C357 446 373 458 371 489L371 489C370 501 366 512 363 521ZM89 206C81 298 116 296 116 296C156 297 161 246 153 210C153 205 152 191 166 189C170 189 176 189 181 190L142 74C112 99 93 143 89 206ZM285 213C290 200 303 161 299 125C299 125 282 38 197 50C186 52 176 55 167 59L248 297C261 268 274 240 285 213ZM256 438C247 460 250 483 250 483L250 483C250 485 250 488 251 491C252 496 257 515 271 519C279 520 286 519 292 515L261 426C259 430 258 434 256 438Z"  horiz-adv-x="413" vert-adv-y="1000"  />

      
      <glyph glyph-name="uni20AC" unicode="&#x20AC;" d="M340 527C326 548 312 559 299 566C285 573 272 575 259 575C259 575 259 575 259 575C257 575 256 575 254 574C206 569 169 520 151 489C148 483 140 468 132 447C129 438 125 429 122 420C121 418 120 415 119 411C114 395 107 368 101 333L46 333C39 333 35 325 36 316C37 307 44 300 51 300L97 300C96 291 95 281 95 269L41 269C34 269 29 262 30 253C32 244 39 236 46 236L94 236C94 235 94 233 94 231C94 205 97 176 102 148C102 148 104 140 107 128C107 127 108 123 110 116C111 114 112 111 113 109C115 102 126 72 144 43C156 27 185-8 230-12C231-12 231-12 232-12C235-12 239-12 242-11L242-11C274-9 301 8 321 28L321 28C321 28 326 32 328 40C333 63 328 81 321 94C317 100 312 97 309 94C215-21 129 55 152 237L204 237C211 237 216 244 214 253C213 262 206 270 199 270L157 270C159 281 162 291 164 300L208 300C215 300 220 307 219 316C217 325 210 332 203 332L172 332C174 338 175 341 175 341L175 341C210 448 277 534 315 509C336 496 300 420 300 420C300 420 276 374 296 346L296 346C301 340 305 336 309 333C313 331 322 329 333 343L333 343C395 447 340 527 340 527Z"  horiz-adv-x="434" vert-adv-y="1000"  />

      
      <glyph glyph-name="unia3" unicode="&#xa3;" d="M314 574C264 575 225 539 202 511C179 483 162 448 150 414C149 411 148 408 147 405C142 391 136 368 131 339L131 339C131 339 131 339 130 338C130 337 130 335 129 333L67 333C60 333 56 325 57 316C58 307 65 300 72 300L125 300C124 291 123 281 122 269L62 269C55 269 50 262 51 253C53 244 60 236 67 236L121 236C121 232 121 227 121 222C122 197 124 170 130 144C130 144 131 136 134 124C134 123 135 119 138 112C140 103 144 93 149 83C150 80 136 82 137 79C137 79 137 79 137 79C132 80 127 80 125 81C97 84 79 77 72 74C54 66 38 48 35 10C35 10 34 3 35-8C37-18 43-36 60-37C72-38 78-32 83-24C91-11 104 1 126 1C160 2 193-9 222-16C228-17 235-18 242-19L242-19C242-19 243-19 245-20C247-20 249-20 251-21C252-21 253-21 254-21L254-21C257-21 261-22 265-22C277-23 292-24 305-20C308-19 311-17 315-16C315-16 315-16 315-16L315-16C330-8 341 6 343 30C343 44 342 55 339 65C336 73 332 78 328 78C325 77 323 74 322 71C321 67 320 64 318 61C308 46 263 52 224 60C222 61 204 64 203 64C189 97 172 163 181 237L233 237C240 237 244 244 243 253C242 262 235 270 228 270L186 270C189 281 191 291 193 300L237 300C244 300 249 307 247 316C246 325 239 332 232 332L202 332C203 335 204 337 204 337C239 443 311 526 346 505C368 492 331 416 331 416C331 416 307 371 327 343L327 343C331 337 336 334 340 331C344 329 353 326 364 340L364 340C391 385 396 425 393 456L393 456C385 574 314 574 314 574Z"  horiz-adv-x="452" vert-adv-y="1000"  />

      
      <glyph glyph-name="uni2b" unicode="&#x2b;" d="M146 221C151 240 133 241 122 242C122 242 122 242 122 242C120 242 118 242 115 243C119 252 122 260 125 269C128 282 125 293 113 294C99 295 87 275 81 263C79 257 76 251 74 244C67 244 59 244 52 243C41 241 29 232 22 217C14 199 27 193 37 192C42 192 47 192 52 192C52 192 52 192 52 192C49 185 47 178 45 172C41 158 38 138 56 142C72 145 83 168 89 182C89 182 89 182 89 182C90 185 92 188 93 191C93 191 94 191 94 191C99 191 105 191 111 192C123 195 141 201 146 221Z"  horiz-adv-x="165" vert-adv-y="1000"  />

      
      <glyph glyph-name="uni2d" unicode="&#x2d;" d="M169 221C172 240 154 241 143 242C143 242 143 242 143 242C120 244 97 246 73 243C62 241 51 232 45 217C39 199 53 193 63 192C82 192 101 192 120 191C125 191 131 191 136 192C148 195 166 201 169 221Z"  horiz-adv-x="214" vert-adv-y="1000"  />

      
      <glyph glyph-name="uni2212" unicode="&#x2212;" d="M194 221C197 240 179 241 168 242C168 242 168 242 168 242C145 244 122 246 98 243C87 241 76 232 70 217C64 199 78 193 88 192C107 192 126 192 145 191C150 191 156 191 161 192C173 195 191 201 194 221Z"  horiz-adv-x="266" vert-adv-y="1000"  />

      
      <glyph glyph-name="unid7" unicode="&#xd7;" d="M114 215C114 216 115 216 115 216C119 220 123 225 128 231C136 242 147 260 139 273C132 285 117 270 108 262C106 260 104 258 102 256C100 263 97 270 94 276C90 284 81 287 71 277C59 266 61 247 63 237C65 232 67 227 68 223C62 217 57 210 52 204C44 194 39 180 43 167C47 153 61 161 69 169C73 173 77 177 81 182C81 181 81 181 81 181C83 176 85 171 87 167C92 158 101 147 113 163C124 178 119 197 116 208C116 210 115 213 114 215Z"  horiz-adv-x="178" vert-adv-y="1000"  />

      
      <glyph glyph-name="unif7" unicode="&#xf7;" d="M130 242C107 244 84 246 59 243C49 241 37 232 32 217C25 199 39 193 49 192C68 192 87 192 106 191C111 191 117 191 123 192C134 195 152 201 155 221C158 240 140 241 130 242ZM106 252C120 252 132 266 133 283C135 300 124 314 111 314C97 314 85 300 83 283C82 266 92 252 106 252ZM81 181C67 181 55 168 53 150C52 133 62 119 76 119C90 119 102 133 103 150C105 168 94 181 81 181Z"  horiz-adv-x="186" vert-adv-y="1000"  />

      
      <glyph glyph-name="uni3d" unicode="&#x3d;" d="M124 212C103 213 82 216 60 213C51 211 40 203 36 190C30 173 42 168 51 168C68 167 85 167 102 166C107 166 112 167 117 167C128 170 144 175 147 193C149 210 133 211 124 212ZM150 272C150 272 150 272 150 272C129 274 109 276 87 273C77 271 67 263 62 250C56 234 69 229 78 228C95 228 112 227 129 227C134 226 139 227 144 228C154 230 170 235 173 254C176 270 159 272 150 272Z"  horiz-adv-x="206" vert-adv-y="1000"  />

      
      <glyph glyph-name="uni2f" unicode="&#x2f;" d="M316 508L316 508C316 508 316 508 316 509C316 510 317 512 317 514C322 534 321 569 295 580C272 590 275 556 269 544C221 415 110 161 52 42C50 39 49 36 46 31C37 10 17-26 8-70C4-85 5-111 14-115C42-126 52-102 67-73C96-13 120 41 133 68C177 155 283 393 316 508Z"  horiz-adv-x="328" vert-adv-y="1000"  />

      
      <glyph glyph-name="uni5c" unicode="&#x5c;" d="M16 508C49 393 155 155 199 68C212 41 236-13 265-73C280-102 290-126 318-115C327-111 328-85 324-70C315-26 295 10 286 31C283 36 282 39 280 42C222 161 111 415 63 544C57 556 60 590 37 580C11 569 10 534 15 514C15 512 16 510 16 509C16 508 16 508 16 508Z"  horiz-adv-x="334" vert-adv-y="1000"  />

      
      <glyph glyph-name="uni26" unicode="&#x26;" d="M332 80C330 83 327 84 325 84C312 86 291 90 267 100C270 123 263 146 250 166C250 166 241 183 216 193C201 198 201 189 202 185C205 173 209 157 210 140C209 141 207 143 205 144C187 165 173 184 164 203C166 204 169 205 171 206L171 206C171 206 171 206 171 206C171 206 173 207 176 209C177 209 177 209 177 209C178 209 178 210 179 210C180 210 181 211 181 211C186 214 192 217 199 222C213 231 229 245 238 262C239 263 240 265 240 266C253 293 244 320 242 325C236 345 220 369 179 369C135 369 105 330 108 275C109 268 110 247 119 221C60 197 33 168 29 131C27 105 41 61 82 39C100 28 129 17 171 17C233 18 249 51 253 64C254 65 254 66 255 66C267 59 280 54 294 51C295 50 297 50 299 51C305 53 319 59 331 73C333 76 333 79 332 80ZM199 80C199 80 199 80 199 80C199 80 199 80 199 80C198 78 195 74 190 69C183 63 172 56 159 55C142 54 129 58 120 63C104 70 83 88 88 130C88 130 89 137 92 146C97 159 106 169 113 175C115 177 118 179 120 180L121 180C123 182 128 184 133 187C148 158 171 127 207 98C205 91 203 85 199 80L199 80ZM213 330C213 330 213 330 213 330C216 327 221 317 220 305C219 291 211 279 206 274C194 259 174 245 151 234C142 260 141 282 143 297C145 317 154 329 158 333C171 346 183 346 190 345C206 342 213 330 213 330Z"  horiz-adv-x="351" vert-adv-y="1000"  />

      
      <glyph glyph-name="uni2a" unicode="&#x2a;" d="M66 626C75 624 78 635 80 643C85 642 91 642 98 644C110 649 106 658 102 663C102 663 101 664 101 664C106 667 111 671 114 676C121 687 112 690 105 690C103 690 102 689 100 689C104 697 106 705 102 712C98 719 91 714 86 708C84 712 81 715 77 717C68 722 63 712 61 705C61 704 61 702 61 701C55 703 48 704 41 699C32 694 37 686 41 681C35 678 29 673 26 666C21 655 34 655 41 656C41 656 41 655 41 656C41 656 41 656 41 656C38 649 37 641 39 634C42 624 50 630 56 635C57 631 61 627 66 626Z"  horiz-adv-x="143" vert-adv-y="1000"  />

      
      <glyph glyph-name="uni27" unicode="&#x27;" d="M68 689C54 701 32 682 24 656C17 629 28 609 28 609C38 593 52 607 67 629C82 652 83 677 68 689Z"  horiz-adv-x="98" vert-adv-y="1000"  />

      
      <glyph glyph-name="uni22" unicode="&#x22;" d="M68 689C54 701 31 682 24 656C17 629 28 609 28 609C38 593 52 607 67 629C81 652 82 677 68 689ZM130 663C116 675 93 656 86 630C79 604 90 583 90 583C99 567 114 581 128 604C143 626 144 652 130 663Z"  horiz-adv-x="160" vert-adv-y="1000"  />

      
      <glyph glyph-name="uni21" unicode="&#x21;" d="M50 39C33 39 14 25 9 7C3-10 13-24 30-24C48-24 66-10 72 7C77 25 67 39 50 39ZM226 576C218 576 207 562 199 547C191 533 184 518 184 518C181 513 179 506 176 499C173 492 170 485 167 477C163 469 160 460 157 451C155 447 153 443 152 438C150 433 148 429 147 424C133 386 119 344 106 302C94 261 82 221 73 187C68 171 64 156 61 143C59 137 58 131 57 126C55 121 54 116 54 113C48 83 50 69 54 64C58 58 63 59 63 59C73 61 86 83 101 117C117 150 133 196 149 243C157 267 165 291 172 315C180 338 187 361 193 382C200 403 206 422 212 438C214 446 217 453 219 460C221 466 223 471 225 476C228 485 231 493 233 500C234 504 235 507 236 511C238 514 239 518 239 521C243 533 245 544 245 552C245 568 239 576 226 576Z"  horiz-adv-x="251" vert-adv-y="1000"  />

      
      <glyph glyph-name="uni3f" unicode="&#x3f;" d="M231 581C231 581 111 568 77 438C57 365 114 348 136 341C143 339 152 340 161 346C182 360 198 378 206 401C208 405 205 409 201 408C192 405 174 401 158 406C139 411 122 431 131 468C153 560 225 560 225 560C307 566 286 469 286 469C262 361 183 306 97 187C56 131 46 85 60 63C64 57 75 61 76 70C81 92 104 125 130 155C178 208 316 340 344 434C371 526 314 586 231 581ZM65 35C48 35 31 22 26 5C21-11 30-24 46-24C63-24 80-11 85 5C90 22 81 35 65 35Z"  horiz-adv-x="375" vert-adv-y="1000"  />

      
      <glyph glyph-name="uni2e" unicode="&#x2e;" d="M70 47C54 47 41 34 41 17C41 1 55-12 71-12C87-12 100 1 100 17C100 34 86 47 70 47Z"  horiz-adv-x="139" vert-adv-y="1000"  />

      
      <glyph glyph-name="uni2c" unicode="&#x2c;" d="M67 41C53 53 30 34 23 8C16-18 27-38 27-38C36-55 51-40 66-18C80 4 81 30 67 41Z"  horiz-adv-x="94" vert-adv-y="1000"  />

      
      <glyph glyph-name="uni40" unicode="&#x40;" d="M239 131C241 131 243 131 245 131L245 131C245 131 305 133 336 209C366 286 320 365 231 368C122 373 69 273 62 204C62 204 22 39 192 18C192 18 279 7 322 102C325 109 328 125 316 131C306 135 301 126 298 120C289 89 268 45 203 48C203 48 107 50 124 198C124 198 142 343 233 345C233 345 312 347 315 253C318 180 285 155 262 147C258 145 254 144 252 144C252 144 251 144 251 144C244 144 249 161 254 175C256 179 258 184 260 188C260 188 260 189 261 189C261 189 261 189 261 189C261 189 261 189 261 189C266 201 283 229 268 232C278 271 253 276 253 276C215 288 189 252 189 252C182 244 174 232 168 219C165 213 160 200 157 188C156 180 155 172 156 163C157 148 165 134 183 133C212 132 227 165 230 174C218 136 239 131 239 131ZM228 198C228 198 228 197 227 197C227 197 227 197 227 196C226 194 226 193 225 192C220 179 205 150 191 151C191 151 175 152 196 198C217 244 237 260 250 257C250 257 259 256 252 229C240 222 232 207 228 198Z"  horiz-adv-x="394" vert-adv-y="1000"  />

      
      <glyph glyph-name="uni5b" unicode="&#x5b;" d="M317 579C288 588 261 569 244 549C229 532 215 508 208 494C207 492 207 491 206 489C204 485 202 482 202 481C159 392 15 92 99-75C105-85 126-115 159-119C163-119 167-119 171-119L171-118C171-118 172-118 172-118C182-117 189-112 192-110C196-105 199-100 199-95C199-88 192-83 188-81C167-72 142-53 136-8C127 64 209 304 260 443C301 552 329 507 344 531C364 564 317 579 317 579Z"  horiz-adv-x="375" vert-adv-y="1000"  />

      
      <glyph glyph-name="uni5d" unicode="&#x5d;" d="M59-117C88-126 115-106 132-87C148-69 161-46 168-32C169-30 170-28 170-27C173-22 174-19 174-19C217 71 361 370 278 537C272 547 250 578 218 581C214 582 210 582 205 581L205 581C205 581 204 581 204 581C194 579 188 575 185 572C180 568 177 563 177 558C177 551 184 546 188 544C209 535 234 515 240 470C250 399 167 158 116 19C75-89 48-45 33-68C12-102 59-117 59-117Z"  horiz-adv-x="376" vert-adv-y="1000"  />

      
      <glyph glyph-name="uni60" unicode="&#x60;" d="M66 657C66 657 39 673 25 651C16 637 52 587 121 601C121 601 142 607 135 616C130 623 116 616 102 626C87 637 80 650 66 657Z"  horiz-adv-x="145" vert-adv-y="1000"  />

      
      <glyph glyph-name="unib4" unicode="&#xb4;" d="M78 657C64 650 58 637 43 626C29 616 15 623 10 616C3 607 25 601 25 601C94 587 129 637 119 651C104 673 78 657 78 657Z"  horiz-adv-x="145" vert-adv-y="1000"  />

      
      <glyph glyph-name="uni02C6" unicode="&#x02C6;" d="M185 618C181 625 169 619 156 631C144 642 139 655 128 663C128 663 122 667 114 669C113 670 111 670 110 670C109 670 108 670 106 670C99 670 92 666 92 666C80 660 73 649 59 640C45 631 34 639 29 633C21 624 40 617 40 617C68 608 91 613 107 622C121 610 142 601 172 605C172 605 191 608 185 618Z"  horiz-adv-x="224" vert-adv-y="1000"  />

      
      <glyph glyph-name="uni02DA" unicode="&#x02DA;" d="M70 686C51 686 36 671 37 653C37 635 52 620 71 620C89 620 104 635 104 653C104 671 88 686 70 686ZM71 639C62 639 56 645 55 653C55 661 62 667 70 667C78 667 85 661 85 653C85 645 79 639 71 639Z"  horiz-adv-x="143" vert-adv-y="1000"  />

      
      <glyph glyph-name="uni02DC" unicode="&#x02DC;" d="M134 637C125 647 99 673 65 666C34 659 19 648 19 639C19 639 17 622 31 627C50 633 73 628 83 617C90 608 110 596 143 612C143 612 156 618 156 629C155 641 143 628 134 637Z"  horiz-adv-x="182" vert-adv-y="1000"  />

      
      <glyph glyph-name="unia8" unicode="&#xa8;" d="M108 658C93 658 82 646 82 631C82 616 94 604 109 604C123 604 135 616 134 631C134 646 122 658 108 658ZM195 658C181 658 169 646 170 631C170 616 182 604 196 604C210 604 222 616 222 631C221 646 210 658 195 658Z"  horiz-adv-x="302" vert-adv-y="1000"  />

      
      <glyph glyph-name="uni23" unicode="&#x23;" d="M215 154C216 158 211 162 206 164C201 166 195 167 195 167C193 167 191 168 188 168C186 169 183 169 180 169C177 170 174 170 170 170C169 171 167 171 165 171C165 171 164 171 163 171C165 179 167 187 169 194C172 202 174 209 175 216C176 216 177 216 178 216C181 216 183 215 186 215C188 215 190 215 192 215C195 215 198 215 201 215C202 215 204 215 205 215C206 215 208 215 209 215C214 215 218 216 221 217C228 220 231 224 233 231C234 236 229 239 224 242C219 244 213 245 213 245C211 245 209 246 206 246C204 246 201 247 198 247C195 247 192 248 189 248C187 248 186 248 185 248C185 250 186 251 186 252C187 256 188 260 189 263C190 266 191 268 192 270C193 274 194 278 195 282C196 283 196 285 196 287C197 288 197 290 198 291C199 297 200 302 200 306C200 313 197 316 191 315C187 315 182 308 179 301C175 294 172 287 172 287C171 284 170 281 169 278C167 274 166 271 165 267C163 263 162 259 160 255C160 253 159 252 159 250C150 250 141 250 133 250C129 250 126 250 122 250C123 253 124 256 125 258C126 261 127 264 127 266C129 270 130 274 131 277C132 279 132 281 132 282C133 284 133 285 134 287C135 293 136 298 136 301C136 309 133 312 127 311C123 311 118 304 115 296C111 289 108 283 108 283C107 280 106 277 105 273C103 270 102 266 101 263C99 259 98 255 96 251C96 250 96 250 96 249C93 249 91 249 89 249C82 248 76 248 71 247C69 247 67 247 65 247C63 247 61 246 60 246C48 244 42 240 39 237C37 234 37 232 37 232C36 227 44 223 56 221C65 219 75 218 86 217C82 205 79 193 75 181C74 177 74 174 73 171C72 171 71 171 70 171C64 171 58 170 53 170C51 170 49 169 47 169C45 169 43 169 41 168C30 166 24 163 21 160C18 157 19 154 19 154C18 149 26 145 38 143C46 141 55 140 65 140C63 135 62 131 61 127C59 119 58 112 56 106C56 103 55 100 55 98C54 96 54 94 54 92C51 78 53 72 54 70C56 67 59 69 59 69C63 70 69 80 76 97C80 108 85 123 90 139C98 138 105 138 113 138C117 138 122 138 127 138C127 136 126 133 125 131C123 123 122 116 121 110C120 107 119 105 119 102C118 100 118 98 118 96C116 82 117 77 119 74C120 72 123 73 123 73C127 74 133 85 140 101C144 111 148 124 153 138C155 138 157 138 159 138C162 138 165 138 167 138C170 138 172 137 173 137C177 137 180 137 183 137C184 137 185 137 187 137C188 137 189 137 190 137C195 137 199 138 203 139C209 142 213 147 215 154ZM114 172C110 172 105 172 100 172C102 178 104 184 105 190C108 199 110 208 113 216C119 216 125 216 131 216C137 216 143 216 148 216C145 206 142 195 139 185C138 181 137 176 136 172C129 172 121 172 114 172Z"  horiz-adv-x="251" vert-adv-y="1000"  />

      
      <glyph glyph-name="uni25" unicode="&#x25;" d="M236 514C231 516 222 504 213 491C205 478 197 464 197 464C194 459 191 453 188 447C184 440 181 433 177 426C173 418 169 411 165 402C163 398 161 394 159 390C157 386 155 381 153 377C135 342 117 302 100 263C82 225 66 187 52 155C46 139 40 125 35 113C32 107 30 102 28 97C26 92 25 88 23 84C13 56 11 42 12 36C13 30 16 30 16 30C22 30 36 50 53 81C70 112 91 154 111 199C122 221 132 243 142 265C152 287 162 309 171 328C180 348 188 366 195 381C198 388 202 395 205 401C207 407 210 412 212 416C216 424 219 432 223 439C224 442 226 446 227 449C229 452 230 455 231 458C236 470 240 480 242 488C246 504 244 512 236 514ZM81 324C105 324 128 348 132 378C137 408 121 432 97 432C73 432 50 408 45 378C41 348 57 324 81 324ZM69 378C72 391 83 402 93 402C104 402 111 391 108 378C106 365 95 354 84 354C73 354 67 365 69 378ZM170 212C146 212 123 188 118 158C114 129 130 105 154 105C178 105 201 129 205 158C210 188 194 212 170 212ZM181 158C179 145 168 134 157 134C146 134 139 145 142 158C145 172 156 183 166 183C177 183 184 172 181 158Z"  horiz-adv-x="256" vert-adv-y="1000"  />

      
      <glyph glyph-name="uni3a" unicode="&#x3a;" d="M79 236C65 236 50 224 48 210C45 195 54 183 69 183C83 183 98 195 100 210C103 224 94 236 79 236ZM59 141C45 141 31 130 28 115C25 100 34 89 49 89C64 89 78 100 81 115C83 130 74 141 59 141Z"  horiz-adv-x="123" vert-adv-y="1000"  />

      
      <glyph glyph-name="uni3b" unicode="&#x3b;" d="M84 236C69 236 55 224 52 210C49 195 59 183 73 183C88 183 102 195 105 210C108 224 98 236 84 236ZM73 132C70 135 65 136 57 135C52 135 49 132 47 130C45 127 44 125 44 125C40 118 36 105 32 93C30 87 28 81 26 76C25 71 24 67 23 65C23 62 24 60 24 59C25 57 26 56 27 55C30 53 32 53 32 53C35 52 37 52 40 53C41 53 43 54 44 55C45 56 47 57 48 58C54 63 59 71 63 79C67 87 70 96 72 103C74 110 74 116 75 119C77 125 76 130 73 132Z"  horiz-adv-x="118" vert-adv-y="1000"  />

      
      <glyph glyph-name="unif8" unicode="&#xf8;" d="M289 217C287 224 277 214 277 214C257 196 243 189 228 189C214 189 206 193 195 212C212 238 226 260 233 274C234 275 234 275 234 276C239 286 240 303 227 313C215 323 214 305 211 300L183 258C185 270 185 280 185 280C185 280 190 332 155 349C110 370 44 324 9 197C9 197-20 93 18 28C14 22 9 17 6 13L3 8C-4 0-3 6-11-15C-14-22-15-35-11-38C3-49 11-39 21-28L43 0C50-4 57-8 66-12C66-12 99-23 127-8C146 2 168 23 185 72C185 72 200 116 202 160C229 154 255 167 278 191C282 196 292 209 289 217ZM59 83C59 92 61 101 62 109C68 154 89 203 89 203C140 328 176 295 161 248C159 249 156 250 153 250C138 253 129 247 123 236C123 235 124 233 125 233C131 231 142 225 150 210C121 168 87 122 59 83ZM154 103C125-4 76 23 76 23C72 24 70 27 67 30C90 60 127 112 161 162C162 145 160 126 154 103Z"  horiz-adv-x="249" vert-adv-y="1000"  />

      
      <glyph glyph-name="unid8" unicode="&#xd8;" d="M1364 492L1366 495C1372 508 1377 531 1360 546C1345 559 1341 536 1336 529L1322 510C1330 543 1311 565 1311 565C1292 589 1247 585 1247 585C1204 584 1164 570 1128 548C1059 508 1001 441 959 381C891 367 800 358 680 358C626 358 435 361 434 362C350 362 191 361 74 297C19 266 1 236 4 209L5 209C45 210 77 182 98 119C95 248 343 269 447 278C530 284 613 287 689 293C689 293 810 299 924 328C894 280 878 244 878 244C878 244 782 42 851-64C843-74 835-85 829-99C823-108 820-126 826-131C844-146 855-133 870-119L887-100C914-118 953-129 1005-129C1005-129 1226-143 1321 174C1359 303 1347 383 1320 430C1341 459 1357 481 1364 492ZM1234 165C1152-66 1042-96 998-93C963-90 940-76 927-56L938-44C970-12 1155 216 1271 367C1273 318 1264 252 1234 165ZM910 1C904 91 963 214 963 214C963 214 986 276 1034 353C1139 377 1212 409 1258 439C1259 437 1260 434 1260 432C1158 304 989 93 910 1ZM1166 510C1206 545 1264 569 1280 538C1280 538 1289 518 1258 488C1242 496 1227 500 1218 502C1216 502 1214 499 1216 498C1222 493 1231 486 1240 473C1209 451 1157 426 1067 400C1094 437 1127 475 1166 510Z"  horiz-adv-x="1371" vert-adv-y="1000"  />

      
      <glyph glyph-name="unie7" unicode="&#xe7;" d="M141 299C156 280 132 244 116 230C112 226 113 221 118 219C131 214 156 214 166 266C182 340 142 356 142 356C108 374 36 325 7 199C7 199-39 15 78 1L80 0C81-1 81-1 81-2C82-4 79-9 78-11L77-12C76-14 74-18 76-22C77-24 78-25 81-27C82-28 85-28 87-28L91-28C91-34 89-42 87-45L87-47C84-51 82-55 79-58C78-59 72-65 65-65L64-65C60-65 60-64 59-63C58-61 58-53 64-48C69-44 70-40 70-37C69-34 67-32 65-31C63-30 61-29 59-29C54-29 50-32 47-35C37-45 40-59 41-60L41-61C43-69 48-74 56-77C59-78 63-78 67-78L75-78C79-77 83-75 84-75C94-72 103-65 110-57C112-54 114-51 115-48L117-44C118-39 120-31 117-22C116-18 114-14 112-11C111-9 109-8 107-6L107 1L125 4C163 11 220 59 248 168C249 172 255 196 246 198C236 200 232 183 232 183C220 146 173 54 131 47C19 28 84 210 84 210C107 275 132 309 141 299Z"  horiz-adv-x="223" vert-adv-y="1000"  />

      
      <glyph glyph-name="unic7" unicode="&#xc7;" d="M1311 565C1292 589 1246 585 1246 585C1203 584 1163 570 1127 548C1058 508 1001 441 958 381C890 367 800 358 679 358C625 358 435 361 433 362C349 362 190 361 73 297C18 266 1 236 3 209L4 209C45 210 76 182 97 119L98 119C94 248 342 269 447 278C529 284 612 287 688 293C688 293 809 299 923 328C893 280 877 244 877 244C877 244 707-115 985-128C986-131 987-135 987-136C988-139 986-144 984-146L984-147C983-149 981-153 983-157C984-160 986-162 988-163C990-164 993-165 995-165C996-165 998-164 999-164C1000-172 998-180 996-183L996-185C994-190 991-194 988-198C988-199 981-206 973-206L972-206C968-205 967-204 967-203C965-201 965-192 971-186C976-182 978-178 977-174C976-171 973-168 971-167C969-166 967-166 964-166C959-166 955-169 952-172C941-183 946-199 946-200L946-201C949-209 956-215 964-218C968-219 971-220 976-220C979-220 981-220 985-219C990-218 994-217 995-216C1005-212 1015-205 1022-196L1028-186L1029-182C1030-177 1032-168 1028-158C1027-154 1025-150 1022-146C1020-144 1018-142 1016-141C1017-137 1018-131 1018-128C1066-125 1220-98 1276 106C1276 106 1294 176 1270 225C1256 255 1225 278 1166 271C1165 271 1165 270 1166 270C1181 266 1192 257 1199 245C1231 196 1198 97 1198 97C1127-112 998-98 998-98C824-89 963 214 963 214C963 214 985 276 1034 353C1205 393 1291 453 1313 491C1339 536 1311 565 1311 565ZM1066 400C1093 437 1126 475 1165 510C1205 545 1264 569 1279 538C1279 538 1309 470 1066 400Z"  horiz-adv-x="1331" vert-adv-y="1000"  />

      
      <glyph glyph-name="unic0" unicode="&#xc0;" d="M1092 198C1077 174 1046 162 1004 159C1032 296 1082 445 1094 491C1110 556 1086 574 1071 579C1068 580 1065 580 1062 578C994 550 881 526 697 522C643 520 453 519 451 519C368 517 209 512 93 444C39 413 22 383 25 356C25 355 26 355 27 355C67 357 99 330 121 270C121 269 122 269 122 270C117 396 363 424 467 435C549 444 632 449 708 457C708 457 902 472 1030 529C928 375 842 261 765 178C529 213 246 264 185 88C128-79 312-118 312-118C504-165 676-34 808 124C841 118 873 114 902 111C871-43 900-103 905-113C906-113 907-114 907-115C975-150 1030-113 1041-105C1042-104 1042-103 1041-103C980-97 977-2 995 110C1051 117 1087 142 1096 196C1096 198 1093 200 1092 198ZM336-26C336-26 218-16 232 69C244 149 448 188 727 139C577-10 463-38 336-26ZM842 167C909 254 964 344 1002 415C958 313 930 228 913 160C891 161 867 164 842 167ZM1091 668C1091 668 1064 684 1050 662C1041 648 1077 598 1146 612C1146 612 1167 618 1160 627C1155 634 1141 627 1127 637C1112 648 1105 661 1091 668Z"  horiz-adv-x="1111" vert-adv-y="1000"  />

      
      <glyph glyph-name="unic1" unicode="&#xc1;" d="M1092 198C1077 174 1046 162 1004 159C1032 296 1082 445 1094 491C1110 556 1086 574 1071 579C1068 580 1065 580 1062 578C994 550 881 526 697 522C643 520 453 519 451 519C368 517 209 512 93 444C39 413 22 383 25 356C25 355 26 355 27 355C67 357 99 330 121 270C121 269 122 269 122 270C117 396 363 424 467 435C549 444 632 449 708 457C708 457 902 472 1030 529C928 375 842 261 765 178C529 213 246 264 185 88C128-79 312-118 312-118C504-165 676-34 808 124C841 118 873 114 902 111C871-43 900-103 905-113C906-113 907-114 907-115C975-150 1030-113 1041-105C1042-104 1042-103 1041-103C980-97 977-2 995 110C1051 117 1087 142 1096 196C1096 198 1093 200 1092 198ZM336-26C336-26 218-16 232 69C244 149 448 188 727 139C577-10 463-38 336-26ZM842 167C909 254 964 344 1002 415C958 313 930 228 913 160C891 161 867 164 842 167ZM1127 670C1113 663 1107 650 1092 639C1078 629 1064 636 1059 629C1052 620 1074 614 1074 614C1143 600 1178 650 1168 664C1153 686 1127 670 1127 670Z"  horiz-adv-x="1111" vert-adv-y="1000"  />

      
      <glyph glyph-name="unic2" unicode="&#xc2;" d="M1092 198C1077 174 1046 162 1004 159C1032 296 1082 445 1094 491C1110 556 1086 574 1071 579C1068 580 1065 580 1062 578C994 550 881 526 697 522C643 520 453 519 451 519C368 517 209 512 93 444C39 413 22 383 25 356C25 355 26 355 27 355C67 357 99 330 121 270C121 269 122 269 122 270C117 396 363 424 467 435C549 444 632 449 708 457C708 457 902 472 1030 529C928 375 842 261 765 178C529 213 246 264 185 88C128-79 312-118 312-118C504-165 676-34 808 124C841 118 873 114 902 111C871-43 900-103 905-113C906-113 907-114 907-115C975-150 1030-113 1041-105C1042-104 1042-103 1041-103C980-97 977-2 995 110C1051 117 1087 142 1096 196C1096 198 1093 200 1092 198ZM336-26C336-26 218-16 232 69C244 149 448 188 727 139C577-10 463-38 336-26ZM842 167C909 254 964 344 1002 415C958 313 930 228 913 160C891 161 867 164 842 167ZM1186 626C1182 633 1170 627 1157 639C1145 650 1140 663 1129 671C1129 671 1123 675 1115 677C1114 678 1112 678 1111 678C1110 678 1109 678 1107 678C1100 678 1093 674 1093 674C1081 668 1074 657 1060 648C1046 639 1035 647 1030 641C1022 632 1041 625 1041 625C1069 616 1092 621 1108 630C1122 618 1143 609 1173 613C1173 613 1192 616 1186 626Z"  horiz-adv-x="1111" vert-adv-y="1000"  />

      
      <glyph glyph-name="unic3" unicode="&#xc3;" d="M1092 198C1077 174 1046 162 1004 159C1032 296 1082 445 1094 491C1110 556 1086 574 1071 579C1068 580 1065 580 1062 578C994 550 881 526 697 522C643 520 453 519 451 519C368 517 209 512 93 444C39 413 22 383 25 356C25 355 26 355 27 355C67 357 99 330 121 270C121 269 122 269 122 270C117 396 363 424 467 435C549 444 632 449 708 457C708 457 902 472 1030 529C928 375 842 261 765 178C529 213 246 264 185 88C128-79 312-118 312-118C504-165 676-34 808 124C841 118 873 114 902 111C871-43 900-103 905-113C906-113 907-114 907-115C975-150 1030-113 1041-105C1042-104 1042-103 1041-103C980-97 977-2 995 110C1051 117 1087 142 1096 196C1096 198 1093 200 1092 198ZM336-26C336-26 218-16 232 69C244 149 448 188 727 139C577-10 463-38 336-26ZM842 167C909 254 964 344 1002 415C958 313 930 228 913 160C891 161 867 164 842 167ZM1158 638C1149 648 1123 674 1089 667C1058 660 1043 649 1043 640C1043 640 1041 623 1055 628C1074 634 1097 629 1107 618C1114 609 1134 597 1167 613C1167 613 1180 619 1180 630C1179 642 1167 629 1158 638Z"  horiz-adv-x="1111" vert-adv-y="1000"  />

      
      <glyph glyph-name="unic4" unicode="&#xc4;" d="M1092 198C1077 174 1046 162 1004 159C1032 296 1082 445 1094 491C1110 556 1086 574 1071 579C1068 580 1065 580 1062 578C994 550 881 526 697 522C643 520 453 519 451 519C368 517 209 512 93 444C39 413 22 383 25 356C25 355 26 355 27 355C67 357 99 330 121 270C121 269 122 269 122 270C117 396 363 424 467 435C549 444 632 449 708 457C708 457 902 472 1030 529C928 375 842 261 765 178C529 213 246 264 185 88C128-79 312-118 312-118C504-165 676-34 808 124C841 118 873 114 902 111C871-43 900-103 905-113C906-113 907-114 907-115C975-150 1030-113 1041-105C1042-104 1042-103 1041-103C980-97 977-2 995 110C1051 117 1087 142 1096 196C1096 198 1093 200 1092 198ZM336-26C336-26 218-16 232 69C244 149 448 188 727 139C577-10 463-38 336-26ZM842 167C909 254 964 344 1002 415C958 313 930 228 913 160C891 161 867 164 842 167ZM1066 665C1051 665 1040 653 1040 638C1040 623 1052 611 1067 611C1081 611 1093 623 1092 638C1092 653 1080 665 1066 665ZM1153 665C1139 665 1127 653 1128 638C1128 623 1140 611 1154 611C1168 611 1180 623 1180 638C1179 653 1168 665 1153 665Z"  horiz-adv-x="1111" vert-adv-y="1000"  />

      
      <glyph glyph-name="unic5" unicode="&#xc5;" d="M1092 198C1077 174 1046 162 1004 159C1032 296 1082 445 1094 491C1110 556 1086 574 1071 579C1068 580 1065 580 1062 578C994 550 881 526 697 522C643 520 453 519 451 519C368 517 209 512 93 444C39 413 22 383 25 356C25 355 26 355 27 355C67 357 99 330 121 270C121 269 122 269 122 270C117 396 363 424 467 435C549 444 632 449 708 457C708 457 902 472 1030 529C928 375 842 261 765 178C529 213 246 264 185 88C128-79 312-118 312-118C504-165 676-34 808 124C841 118 873 114 902 111C871-43 900-103 905-113C906-113 907-114 907-115C975-150 1030-113 1041-105C1042-104 1042-103 1041-103C980-97 977-2 995 110C1051 117 1087 142 1096 196C1096 198 1093 200 1092 198ZM336-26C336-26 218-16 232 69C244 149 448 188 727 139C577-10 463-38 336-26ZM842 167C909 254 964 344 1002 415C958 313 930 228 913 160C891 161 867 164 842 167ZM1121 672C1102 672 1087 657 1088 639C1088 621 1103 606 1122 606C1140 606 1155 621 1155 639C1155 657 1139 672 1121 672ZM1122 625C1113 625 1107 631 1106 639C1106 647 1113 653 1121 653C1129 653 1136 647 1136 639C1136 631 1130 625 1122 625Z"  horiz-adv-x="1111" vert-adv-y="1000"  />

      
      <glyph glyph-name="unic8" unicode="&#xc8;" d="M1384 580C1369 572 1329 573 1295 573C1272 573 1251 572 1251 572C1165 571 1111 537 1079 505C1089 559 1067 575 1053 579C1050 580 1047 580 1045 578C977 550 863 526 680 522C626 520 435 519 433 519C350 517 191 512 75 444C22 413 5 383 8 357C8 356 9 355 9 355C49 357 81 330 103 271C103 270 104 270 104 271C101 396 346 424 449 435C532 444 615 449 691 457C691 457 907 473 1033 539C1019 493 992 433 992 433C897 215 872 77 870-6C871-34 880-121 982-129C1049-133 1139-114 1227-19C1227-19 1275 35 1277 89C1278 124 1261 158 1202 180C1216 169 1222 155 1223 140C1229 82 1154 10 1154 10C1089-52 1033-77 989-85C944-29 979 142 1017 286C1038 314 1143 270 1202 289C1229 295 1260 321 1246 364C1245 367 1242 367 1240 366C1208 335 1087 342 1066 344C1051 345 1040 343 1032 338C1036 355 1041 371 1045 386L1045 384C1108 539 1260 482 1322 497C1378 510 1387 560 1388 578C1388 580 1386 581 1384 580ZM1186 675C1186 675 1159 691 1145 669C1136 655 1172 605 1241 619C1241 619 1262 625 1255 634C1250 641 1236 634 1222 644C1207 655 1200 668 1186 675Z"  horiz-adv-x="1329" vert-adv-y="1000"  />

      
      <glyph glyph-name="unic9" unicode="&#xc9;" d="M1384 580C1369 572 1329 573 1295 573C1272 573 1251 572 1251 572C1165 571 1111 537 1079 505C1089 559 1067 575 1053 579C1050 580 1047 580 1045 578C977 550 863 526 680 522C626 520 435 519 433 519C350 517 191 512 75 444C22 413 5 383 8 357C8 356 9 355 9 355C49 357 81 330 103 271C103 270 104 270 104 271C101 396 346 424 449 435C532 444 615 449 691 457C691 457 907 473 1033 539C1019 493 992 433 992 433C897 215 872 77 870-6C871-34 880-121 982-129C1049-133 1139-114 1227-19C1227-19 1275 35 1277 89C1278 124 1261 158 1202 180C1216 169 1222 155 1223 140C1229 82 1154 10 1154 10C1089-52 1033-77 989-85C944-29 979 142 1017 286C1038 314 1143 270 1202 289C1229 295 1260 321 1246 364C1245 367 1242 367 1240 366C1208 335 1087 342 1066 344C1051 345 1040 343 1032 338C1036 355 1041 371 1045 386L1045 384C1108 539 1260 482 1322 497C1378 510 1387 560 1388 578C1388 580 1386 581 1384 580ZM1232 678C1218 671 1212 658 1197 647C1183 637 1169 644 1164 637C1157 628 1179 622 1179 622C1248 608 1283 658 1273 672C1258 694 1232 678 1232 678Z"  horiz-adv-x="1329" vert-adv-y="1000"  />

      
      <glyph glyph-name="unica" unicode="&#xca;" d="M1384 580C1369 572 1329 573 1295 573C1272 573 1251 572 1251 572C1165 571 1111 537 1079 505C1089 559 1067 575 1053 579C1050 580 1047 580 1045 578C977 550 863 526 680 522C626 520 435 519 433 519C350 517 191 512 75 444C22 413 5 383 8 357C8 356 9 355 9 355C49 357 81 330 103 271C103 270 104 270 104 271C101 396 346 424 449 435C532 444 615 449 691 457C691 457 907 473 1033 539C1019 493 992 433 992 433C897 215 872 77 870-6C871-34 880-121 982-129C1049-133 1139-114 1227-19C1227-19 1275 35 1277 89C1278 124 1261 158 1202 180C1216 169 1222 155 1223 140C1229 82 1154 10 1154 10C1089-52 1033-77 989-85C944-29 979 142 1017 286C1038 314 1143 270 1202 289C1229 295 1260 321 1246 364C1245 367 1242 367 1240 366C1208 335 1087 342 1066 344C1051 345 1040 343 1032 338C1036 355 1041 371 1045 386L1045 384C1108 539 1260 482 1322 497C1378 510 1387 560 1388 578C1388 580 1386 581 1384 580ZM1288 629C1284 636 1272 630 1259 642C1247 653 1242 666 1231 674C1231 674 1225 678 1217 680C1216 681 1214 681 1213 681C1212 681 1211 681 1209 681C1202 681 1195 677 1195 677C1183 671 1176 660 1162 651C1148 642 1137 650 1132 644C1124 635 1143 628 1143 628C1171 619 1194 624 1210 633C1224 621 1245 612 1275 616C1275 616 1294 619 1288 629Z"  horiz-adv-x="1329" vert-adv-y="1000"  />

      
      <glyph glyph-name="unicb" unicode="&#xcb;" d="M1384 580C1369 572 1329 573 1295 573C1272 573 1251 572 1251 572C1165 571 1111 537 1079 505C1089 559 1067 575 1053 579C1050 580 1047 580 1045 578C977 550 863 526 680 522C626 520 435 519 433 519C350 517 191 512 75 444C22 413 5 383 8 357C8 356 9 355 9 355C49 357 81 330 103 271C103 270 104 270 104 271C101 396 346 424 449 435C532 444 615 449 691 457C691 457 907 473 1033 539C1019 493 992 433 992 433C897 215 872 77 870-6C871-34 880-121 982-129C1049-133 1139-114 1227-19C1227-19 1275 35 1277 89C1278 124 1261 158 1202 180C1216 169 1222 155 1223 140C1229 82 1154 10 1154 10C1089-52 1033-77 989-85C944-29 979 142 1017 286C1038 314 1143 270 1202 289C1229 295 1260 321 1246 364C1245 367 1242 367 1240 366C1208 335 1087 342 1066 344C1051 345 1040 343 1032 338C1036 355 1041 371 1045 386L1045 384C1108 539 1260 482 1322 497C1378 510 1387 560 1388 578C1388 580 1386 581 1384 580ZM1167 673C1152 673 1141 661 1141 646C1141 631 1153 619 1168 619C1182 619 1194 631 1193 646C1193 661 1181 673 1167 673ZM1254 673C1240 673 1228 661 1229 646C1229 631 1241 619 1255 619C1269 619 1281 631 1281 646C1280 661 1269 673 1254 673Z"  horiz-adv-x="1329" vert-adv-y="1000"  />

      
      <glyph glyph-name="unicc" unicode="&#xcc;" d="M1056 542C1027 381 914-132 646-129C645-129 645-129 644-129C606-122 565-83 577-18C577-17 578-16 579-16C837-96 1009 538 1009 538C881 484 694 469 694 469C618 461 535 456 453 447C349 437 103 408 107 282C107 281 107 281 107 282C84 342 52 369 12 367C12 367 11 368 11 368C8 395 24 425 79 457C194 524 353 529 437 531C438 531 629 532 683 534C835 538 951 558 1024 580C1025 580 1026 580 1027 580C1042 571 1053 561 1056 546C1056 544 1056 543 1056 542ZM1057 676C1057 676 1030 692 1016 670C1007 656 1043 606 1112 620C1112 620 1133 626 1126 635C1121 642 1107 635 1093 645C1078 656 1071 669 1057 676Z"  horiz-adv-x="1023" vert-adv-y="1000"  />

      
      <glyph glyph-name="unicd" unicode="&#xcd;" d="M1056 542C1056 543 1056 544 1056 546C1053 561 1042 571 1027 580C1026 580 1025 580 1024 580C951 558 835 538 683 534C629 532 438 531 437 531C353 529 194 524 79 457C24 425 8 395 11 368C11 368 12 367 12 367C52 369 84 342 107 282C107 281 107 281 107 282C103 408 349 437 453 447C535 456 618 461 694 469C694 469 881 484 1009 538C1009 538 837-96 579-16C578-16 577-17 577-18C565-83 606-122 644-129C645-129 645-129 646-129C914-132 1027 381 1056 542ZM1080 676C1066 669 1060 656 1045 645C1031 635 1017 642 1012 635C1005 626 1027 620 1027 620C1096 606 1131 656 1121 670C1106 692 1080 676 1080 676Z"  horiz-adv-x="1023" vert-adv-y="1000"  />

      
      <glyph glyph-name="unice" unicode="&#xce;" d="M1056 542C1027 381 914-132 646-129C645-129 645-129 644-129C606-122 565-83 577-18C577-17 578-16 579-16C837-96 1009 538 1009 538C881 484 694 469 694 469C618 461 535 456 453 447C349 437 103 408 107 282C107 281 107 281 107 282C84 342 52 369 12 367C12 367 11 368 11 368C8 395 24 425 79 457C194 524 353 529 437 531C438 531 629 532 683 534C835 538 951 558 1024 580C1025 580 1026 580 1027 580C1042 571 1053 561 1056 546C1056 544 1056 543 1056 542ZM1149 629C1145 636 1133 630 1120 642C1108 653 1103 666 1092 674C1092 674 1086 678 1078 680C1077 681 1075 681 1074 681C1073 681 1072 681 1070 681C1063 681 1056 677 1056 677C1044 671 1037 660 1023 651C1009 642 998 650 993 644C985 635 1004 628 1004 628C1032 619 1055 624 1071 633C1085 621 1106 612 1136 616C1136 616 1155 619 1149 629Z"  horiz-adv-x="1023" vert-adv-y="1000"  />

      
      <glyph glyph-name="unicf" unicode="&#xcf;" d="M1056 542C1027 381 914-132 646-129C645-129 645-129 644-129C606-122 565-83 577-18C577-17 578-16 579-16C837-96 1009 538 1009 538C881 484 694 469 694 469C618 461 535 456 453 447C349 437 103 408 107 282C107 281 107 281 107 282C84 342 52 369 12 367C12 367 11 368 11 368C8 395 24 425 79 457C194 524 353 529 437 531C438 531 629 532 683 534C835 538 951 558 1024 580C1025 580 1026 580 1027 580C1042 571 1053 561 1056 546C1056 544 1056 543 1056 542ZM1016 673C1001 673 990 661 990 646C990 631 1002 619 1017 619C1031 619 1043 631 1042 646C1042 661 1030 673 1016 673ZM1103 673C1089 673 1077 661 1078 646C1078 631 1090 619 1104 619C1118 619 1130 631 1130 646C1129 661 1118 673 1103 673Z"  horiz-adv-x="1023" vert-adv-y="1000"  />

      
      <glyph glyph-name="unid1" unicode="&#xd1;" d="M1323 578C1323 578 1190 507 1141 31C1141 31 1136-28 1126-74C1121-41 1117 11 1118 88C1121 254 1112 538 1059 580C1059 580 1058 580 1057 580C1057 580 1057 580 1057 580C987 550 870 526 694 522C640 520 449 519 447 519C364 517 205 512 89 445C35 413 19 383 22 356C22 355 22 355 23 355C63 357 95 330 117 270C118 269 118 269 118 270C114 396 359 424 463 435C546 444 629 449 705 457C705 457 886 471 1014 524C1012 463 995 328 890 166C749-48 544-26 544-26C544-26 441-22 437 64C434 122 480 147 480 147C511 164 556 160 584 133C616 103 632 64 637 54C637 53 638 53 639 54C696 138 617 184 617 184C586 204 558 207 533 206C417 201 391 90 391 90C345-78 519-122 519-122C519-122 793-199 965 152C1017 258 1043 346 1055 413C1057 358 1057 284 1052 190C1042 9 1054-37 1061-71C1061-72 1062-73 1062-74C1066-81 1084-114 1111-126C1111-126 1111-126 1111-126C1111-126 1127-133 1143-128C1158-123 1175-106 1186-63C1209 32 1306 565 1438 502C1438 502 1410 579 1323 578ZM1287 650C1278 660 1252 686 1218 679C1187 672 1172 661 1172 652C1172 652 1170 635 1184 640C1203 646 1226 641 1236 630C1243 621 1263 609 1296 625C1296 625 1309 631 1309 642C1308 654 1296 641 1287 650Z"  horiz-adv-x="1315" vert-adv-y="1000"  />

      
      <glyph glyph-name="unid2" unicode="&#xd2;" d="M1292 465C1302 474 1309 483 1314 491C1339 536 1311 565 1311 565C1292 589 1247 585 1247 585C1204 584 1164 570 1128 548C1059 508 1001 441 959 381C891 367 800 358 680 358C626 358 435 361 434 362C350 362 191 361 74 297C19 266 1 236 4 209C4 209 4 209 5 209C45 210 77 182 98 119C98 119 98 119 98 119C95 248 343 269 447 278C530 284 613 287 689 293C689 293 810 299 924 328C894 280 878 244 878 244C878 244 700-131 1005-129C1005-129 1226-143 1321 174C1371 342 1336 425 1292 465ZM1166 510C1206 545 1264 569 1280 538C1280 538 1289 518 1258 488C1242 496 1227 500 1218 502C1216 502 1214 499 1216 498C1222 493 1231 486 1240 473C1209 451 1157 426 1067 400C1094 437 1127 475 1166 510ZM1234 165C1152-66 1042-96 998-93C823-80 963 214 963 214C963 214 986 276 1034 353C1139 377 1212 409 1258 439C1277 389 1283 305 1234 165ZM1296 678C1296 678 1269 694 1255 672C1246 658 1282 608 1351 622C1351 622 1372 628 1365 637C1360 644 1346 637 1332 647C1317 658 1310 671 1296 678Z"  horiz-adv-x="1371" vert-adv-y="1000"  />

      
      <glyph glyph-name="unid3" unicode="&#xd3;" d="M1292 465C1302 474 1309 483 1314 491C1339 536 1311 565 1311 565C1292 589 1247 585 1247 585C1204 584 1164 570 1128 548C1059 508 1001 441 959 381C891 367 800 358 680 358C626 358 435 361 434 362C350 362 191 361 74 297C19 266 1 236 4 209C4 209 4 209 5 209C45 210 77 182 98 119C98 119 98 119 98 119C95 248 343 269 447 278C530 284 613 287 689 293C689 293 810 299 924 328C894 280 878 244 878 244C878 244 700-131 1005-129C1005-129 1226-143 1321 174C1371 342 1336 425 1292 465ZM1166 510C1206 545 1264 569 1280 538C1280 538 1289 518 1258 488C1242 496 1227 500 1218 502C1216 502 1214 499 1216 498C1222 493 1231 486 1240 473C1209 451 1157 426 1067 400C1094 437 1127 475 1166 510ZM1234 165C1152-66 1042-96 998-93C823-80 963 214 963 214C963 214 986 276 1034 353C1139 377 1212 409 1258 439C1277 389 1283 305 1234 165ZM1340 678C1326 671 1320 658 1305 647C1291 637 1277 644 1272 637C1265 628 1287 622 1287 622C1356 608 1391 658 1381 672C1366 694 1340 678 1340 678Z"  horiz-adv-x="1371" vert-adv-y="1000"  />

      
      <glyph glyph-name="unid4" unicode="&#xd4;" d="M1292 465C1302 474 1309 483 1314 491C1339 536 1311 565 1311 565C1292 589 1247 585 1247 585C1204 584 1164 570 1128 548C1059 508 1001 441 959 381C891 367 800 358 680 358C626 358 435 361 434 362C350 362 191 361 74 297C19 266 1 236 4 209C4 209 4 209 5 209C45 210 77 182 98 119C98 119 98 119 98 119C95 248 343 269 447 278C530 284 613 287 689 293C689 293 810 299 924 328C894 280 878 244 878 244C878 244 700-131 1005-129C1005-129 1226-143 1321 174C1371 342 1336 425 1292 465ZM1166 510C1206 545 1264 569 1280 538C1280 538 1289 518 1258 488C1242 496 1227 500 1218 502C1216 502 1214 499 1216 498C1222 493 1231 486 1240 473C1209 451 1157 426 1067 400C1094 437 1127 475 1166 510ZM1234 165C1152-66 1042-96 998-93C823-80 963 214 963 214C963 214 986 276 1034 353C1139 377 1212 409 1258 439C1277 389 1283 305 1234 165ZM1398 631C1394 638 1382 632 1369 644C1357 655 1352 668 1341 676C1341 676 1335 680 1327 682C1326 683 1324 683 1323 683C1322 683 1321 683 1319 683C1312 683 1305 679 1305 679C1293 673 1286 662 1272 653C1258 644 1247 652 1242 646C1234 637 1253 630 1253 630C1281 621 1304 626 1320 635C1334 623 1355 614 1385 618C1385 618 1404 621 1398 631Z"  horiz-adv-x="1371" vert-adv-y="1000"  />

      
      <glyph glyph-name="unid5" unicode="&#xd5;" d="M1292 465C1302 474 1309 483 1314 491C1339 536 1311 565 1311 565C1292 589 1247 585 1247 585C1204 584 1164 570 1128 548C1059 508 1001 441 959 381C891 367 800 358 680 358C626 358 435 361 434 362C350 362 191 361 74 297C19 266 1 236 4 209C4 209 4 209 5 209C45 210 77 182 98 119C98 119 98 119 98 119C95 248 343 269 447 278C530 284 613 287 689 293C689 293 810 299 924 328C894 280 878 244 878 244C878 244 700-131 1005-129C1005-129 1226-143 1321 174C1371 342 1336 425 1292 465ZM1166 510C1206 545 1264 569 1280 538C1280 538 1289 518 1258 488C1242 496 1227 500 1218 502C1216 502 1214 499 1216 498C1222 493 1231 486 1240 473C1209 451 1157 426 1067 400C1094 437 1127 475 1166 510ZM1234 165C1152-66 1042-96 998-93C823-80 963 214 963 214C963 214 986 276 1034 353C1139 377 1212 409 1258 439C1277 389 1283 305 1234 165ZM1367 644C1358 654 1332 680 1298 673C1267 666 1252 655 1252 646C1252 646 1250 629 1264 634C1283 640 1306 635 1316 624C1323 615 1343 603 1376 619C1376 619 1389 625 1389 636C1388 648 1376 635 1367 644Z"  horiz-adv-x="1371" vert-adv-y="1000"  />

      
      <glyph glyph-name="unid6" unicode="&#xd6;" d="M1292 465C1302 474 1309 483 1314 491C1339 536 1311 565 1311 565C1292 589 1247 585 1247 585C1204 584 1164 570 1128 548C1059 508 1001 441 959 381C891 367 800 358 680 358C626 358 435 361 434 362C350 362 191 361 74 297C19 266 1 236 4 209C4 209 4 209 5 209C45 210 77 182 98 119C98 119 98 119 98 119C95 248 343 269 447 278C530 284 613 287 689 293C689 293 810 299 924 328C894 280 878 244 878 244C878 244 700-131 1005-129C1005-129 1226-143 1321 174C1371 342 1336 425 1292 465ZM1166 510C1206 545 1264 569 1280 538C1280 538 1289 518 1258 488C1242 496 1227 500 1218 502C1216 502 1214 499 1216 498C1222 493 1231 486 1240 473C1209 451 1157 426 1067 400C1094 437 1127 475 1166 510ZM1234 165C1152-66 1042-96 998-93C823-80 963 214 963 214C963 214 986 276 1034 353C1139 377 1212 409 1258 439C1277 389 1283 305 1234 165ZM1286 669C1271 669 1260 657 1260 642C1260 627 1272 615 1287 615C1301 615 1313 627 1312 642C1312 657 1300 669 1286 669ZM1373 669C1359 669 1347 657 1348 642C1348 627 1360 615 1374 615C1388 615 1400 627 1400 642C1399 657 1388 669 1373 669Z"  horiz-adv-x="1371" vert-adv-y="1000"  />

      
      <glyph glyph-name="unid9" unicode="&#xd9;" d="M1293 581C1292 581 1292 581 1292 580C1291 546 1242 433 1242 433C1222 388 1205 346 1191 308C1135 167 1068-27 983-18C885-8 1026 288 1062 445C1080 525 1059 566 1049 579C1047 582 1043 583 1039 582C959 542 851 526 678 522C625 520 434 519 432 519C349 517 190 512 74 445C20 413 4 383 7 356C7 355 7 355 8 355C48 357 80 330 102 270C103 269 103 269 103 270C99 396 344 424 448 435C531 444 614 449 689 457C689 457 891 467 1018 531C1018 531 1038 481 962 337C875 172 787-51 923-81C1008-99 1074-32 1126 64C1109-56 1133-104 1138-113C1138-113 1139-114 1140-115C1207-150 1262-113 1274-105C1274-104 1274-103 1273-103C1131-89 1303 401 1326 491C1346 573 1302 581 1293 581ZM1211 678C1211 678 1184 694 1170 672C1161 658 1197 608 1266 622C1266 622 1287 628 1280 637C1275 644 1261 637 1247 647C1232 658 1225 671 1211 678Z"  horiz-adv-x="1308" vert-adv-y="1000"  />

      
      <glyph glyph-name="unida" unicode="&#xda;" d="M1293 581C1292 581 1292 581 1292 580C1291 546 1242 433 1242 433C1222 388 1205 346 1191 308C1135 167 1068-27 983-18C885-8 1026 288 1062 445C1080 525 1059 566 1049 579C1047 582 1043 583 1039 582C959 542 851 526 678 522C625 520 434 519 432 519C349 517 190 512 74 445C20 413 4 383 7 356C7 355 7 355 8 355C48 357 80 330 102 270C103 269 103 269 103 270C99 396 344 424 448 435C531 444 614 449 689 457C689 457 891 467 1018 531C1018 531 1038 481 962 337C875 172 787-51 923-81C1008-99 1074-32 1126 64C1109-56 1133-104 1138-113C1138-113 1139-114 1140-115C1207-150 1262-113 1274-105C1274-104 1274-103 1273-103C1131-89 1303 401 1326 491C1346 573 1302 581 1293 581ZM1223 672C1209 665 1203 652 1188 641C1174 631 1160 638 1155 631C1148 622 1170 616 1170 616C1239 602 1274 652 1264 666C1249 688 1223 672 1223 672Z"  horiz-adv-x="1308" vert-adv-y="1000"  />

      
      <glyph glyph-name="unidb" unicode="&#xdb;" d="M1293 581C1292 581 1292 581 1292 580C1291 546 1242 433 1242 433C1222 388 1205 346 1191 308C1135 167 1068-27 983-18C885-8 1026 288 1062 445C1080 525 1059 566 1049 579C1047 582 1043 583 1039 582C959 542 851 526 678 522C625 520 434 519 432 519C349 517 190 512 74 445C20 413 4 383 7 356C7 355 7 355 8 355C48 357 80 330 102 270C103 269 103 269 103 270C99 396 344 424 448 435C531 444 614 449 689 457C689 457 891 467 1018 531C1018 531 1038 481 962 337C875 172 787-51 923-81C1008-99 1074-32 1126 64C1109-56 1133-104 1138-113C1138-113 1139-114 1140-115C1207-150 1262-113 1274-105C1274-104 1274-103 1273-103C1131-89 1303 401 1326 491C1346 573 1302 581 1293 581ZM1292 629C1288 636 1276 630 1263 642C1251 653 1246 666 1235 674C1235 674 1229 678 1221 680C1220 681 1218 681 1217 681C1216 681 1215 681 1213 681C1206 681 1199 677 1199 677C1187 671 1180 660 1166 651C1152 642 1141 650 1136 644C1128 635 1147 628 1147 628C1175 619 1198 624 1214 633C1228 621 1249 612 1279 616C1279 616 1298 619 1292 629Z"  horiz-adv-x="1308" vert-adv-y="1000"  />

      
      </font>
</defs>
</svg>
